<svg width="203" height="103" viewBox="0 0 203 103" fill="none" xmlns="http://www.w3.org/2000/svg">
<path d="M30.7113 68.1498L29.9483 68.3391L29.376 68.1498L12.399 60.5776L0 64.7423L29.9483 77.9937L59.8966 64.7423L47.4976 60.5776L30.7113 68.1498Z" fill="#F6F7EB"/>
<path d="M30.7113 56.0342L29.9483 56.4129L29.376 56.0342L12.399 48.6514L0 52.8161L29.9483 65.8781L59.8966 52.8161L47.4976 48.6514L30.7113 56.0342Z" fill="#F6F7EB"/>
<path d="M28.9945 0L0 41.0791L28.9945 53.9518V0Z" fill="#F6F7EB"/>
<path d="M75.3477 34.075V21.9595H84.5038V24.2311H78.0182V26.6921H83.7408V28.9637H78.0182V31.614H84.5038V34.075H75.3477Z" fill="#F6F7EB"/>
<path d="M97.2843 34.075L91.3709 26.5028V34.075H88.7004V21.9595H91.1802L96.9028 29.5317V21.9595H99.5733V34.075H97.2843Z" fill="#F6F7EB"/>
<path d="M109.683 24.6099V34.0751H107.013V24.6099H103.388V22.1489H113.498V24.6099H109.683Z" fill="#F6F7EB"/>
<path d="M117.123 34.075V21.9595H126.279V24.2311H119.793V26.6921H125.516V28.9637H119.793V31.614H126.279V34.075H117.123Z" fill="#F6F7EB"/>
<path d="M137.915 34.075L135.244 30.0996H133.146V34.075H130.475V21.9595H136.007C138.869 21.9595 140.585 23.4739 140.585 25.9349C140.585 27.8279 139.441 29.153 137.915 29.5317L140.967 33.8857L137.915 34.075ZM137.915 26.3135C137.915 25.1777 137.152 24.6097 135.817 24.6097H133.146V28.0172H135.817C137.152 28.0172 137.915 27.26 137.915 26.3135Z" fill="#F6F7EB"/>
<path d="M149.551 30.4782H147.643V34.075H144.973V21.9595H149.932C152.794 21.9595 154.701 23.6632 154.701 26.1242C154.32 29.153 152.221 30.4782 149.551 30.4782ZM151.84 26.3135C151.84 25.1777 150.886 24.4204 149.551 24.4204H147.452V28.0172H149.551C150.886 28.2065 151.84 27.4493 151.84 26.3135Z" fill="#F6F7EB"/>
<path d="M165.383 34.075L162.713 30.0996H160.615V34.075H157.944V21.9595H163.476C166.337 21.9595 168.054 23.4739 168.054 25.9349C168.054 27.8279 166.909 29.153 165.383 29.5317L168.435 33.8857L165.383 34.075ZM165.574 26.3135C165.574 25.1777 164.811 24.6097 163.476 24.6097H160.805V28.0172H163.476C164.811 28.0172 165.574 27.26 165.574 26.3135Z" fill="#F6F7EB"/>
<path d="M172.441 34.075V21.9595H175.112V34.075H172.441Z" fill="#F6F7EB"/>
<path d="M184.268 34.4534C182.36 34.4534 180.644 33.8855 179.118 32.5603L180.644 30.6673C181.788 31.6138 182.933 32.1817 184.268 32.1817C185.412 32.1817 185.985 31.6138 185.985 31.0459C185.985 30.478 185.603 30.0994 183.505 29.5315C181.025 28.9636 179.499 28.3956 179.499 25.9347C179.499 23.663 181.216 22.3379 183.696 22.3379C185.412 22.3379 187.129 22.9058 188.274 23.8523L186.939 25.7454C185.794 24.9882 184.84 24.6095 183.886 24.6095C182.933 24.6095 182.36 25.1775 182.36 25.7454C182.36 26.5026 182.933 26.8812 185.031 27.2598C187.511 27.8277 188.846 28.7742 188.846 30.8566C188.655 32.9389 186.939 34.4534 184.268 34.4534Z" fill="#F6F7EB"/>
<path d="M192.852 34.075V21.9595H202.008V24.2311H195.522V26.6921H201.245V28.9637H195.522V31.614H202.008V34.075H192.852Z" fill="#F6F7EB"/>
<path d="M75.3477 58.1165V46.001H84.5038V48.2726H78.0182V50.7336H83.7408V53.0052H78.0182V55.6555H84.5038V57.9272H75.3477V58.1165Z" fill="#F6F7EB"/>
<path d="M94.2323 48.273V57.9275H91.5617V48.273H87.7466V45.812H97.8566V48.273H94.2323Z" fill="#F6F7EB"/>
<path d="M109.302 58.1165V53.3839H104.342V58.1165H101.672V46.001H104.342V50.7336H109.302V46.001H111.972V58.1165H109.302Z" fill="#F6F7EB"/>
<path d="M116.55 58.1165V46.001H125.707V48.2726H119.221V50.7336H124.944V53.0052H119.221V55.6555H125.707V57.9272H116.55V58.1165Z" fill="#F6F7EB"/>
<path d="M137.343 58.1165L134.672 54.1411H132.574V58.1165H129.903V46.001H135.435C138.296 46.001 140.013 47.5154 140.013 49.9764C140.013 51.8694 138.869 53.1946 137.343 53.5732L140.395 57.9272L137.343 58.1165ZM137.343 50.1657C137.343 49.0299 136.58 48.4619 135.244 48.4619H132.574V51.8694H135.244C136.58 51.8694 137.343 51.1122 137.343 50.1657Z" fill="#F6F7EB"/>
<path d="M144.4 58.1165V46.001H153.557V48.2726H146.88V50.7336H152.603V53.0052H146.88V55.6555H153.366V57.9272H144.4V58.1165Z" fill="#F6F7EB"/>
<path d="M162.713 58.1168C159.47 58.1168 157.372 56.2238 157.372 52.627V45.812H160.233V52.627C160.233 54.52 161.187 55.6559 162.903 55.6559C164.62 55.6559 165.574 54.7093 165.574 52.627V45.812H168.245V52.627C168.054 56.4131 165.956 58.1168 162.713 58.1168Z" fill="#F6F7EB"/>
<path d="M181.979 58.1165V50.355L178.545 55.4662H178.355L174.921 50.355V58.1165H172.25V46.001H175.112L178.355 51.1122L181.597 46.001H184.459V58.1165H181.979Z" fill="#F6F7EB"/>
<path d="M84.3131 81.7796L83.1685 79.1293H78.0182L76.8737 81.7796H74.2031L79.3535 69.6641H81.8333L86.9836 81.7796H84.3131ZM80.6887 72.8822L79.1627 76.8576H82.4055L80.6887 72.8822Z" fill="#F6F7EB"/>
<path d="M90.7988 81.7796V69.6641H93.4693V79.5079H99.5734V81.9689L90.7988 81.7796Z" fill="#F6F7EB"/>
<path d="M103.198 81.7796V69.6641H105.868V79.5079H111.972V81.9689L103.198 81.7796Z" fill="#F6F7EB"/>
<path d="M115.978 81.7796V69.6641H118.649V81.7796H115.978Z" fill="#F6F7EB"/>
<path d="M132.383 81.7796L131.238 79.1293H126.088L124.944 81.7796H122.273L127.423 69.6641H129.903L135.054 81.7796H132.383ZM128.568 72.8822L127.042 76.8576H130.285L128.568 72.8822Z" fill="#F6F7EB"/>
<path d="M147.262 81.7796L141.348 74.2074V81.7796H138.678V69.6641H141.158L146.88 77.2362V69.6641H149.551V81.7796H147.262Z" fill="#F6F7EB"/>
<path d="M159.852 82.1582C156.227 82.1582 153.747 79.5079 153.747 75.9111C153.747 72.5036 156.418 69.6641 160.042 69.6641C162.331 69.6641 163.667 70.4213 164.811 71.5571L163.094 73.4502C162.141 72.5036 161.187 72.125 160.042 72.125C158.135 72.125 156.609 73.8288 156.609 75.7218C156.609 77.8042 158.135 79.5079 160.042 79.5079C161.378 79.5079 162.331 78.94 163.285 78.1828L165.002 79.8865C163.667 81.2116 162.331 82.1582 159.852 82.1582Z" fill="#F6F7EB"/>
<path d="M168.817 81.7796V69.6641H177.973V71.9357H171.487V74.3967H177.21V76.6683H171.487V79.5079H177.973V81.7796H168.817Z" fill="#F6F7EB"/>
<path d="M30.7113 79.6971V102.414L59.7058 67.0137L30.7113 79.6971Z" fill="#F6F7EB"/>
<path d="M28.9948 79.6971L0.19104 67.0137L28.9948 102.414V79.6971Z" fill="#F6F7EB"/>
<path d="M30.7113 0V53.7625L59.8966 41.0791L30.7113 0Z" fill="#F6F7EB"/>
</svg>
