<svg width="201" height="73" viewBox="0 0 201 73" fill="none" xmlns="http://www.w3.org/2000/svg">
<path d="M24.2839 73C38.3652 73 48.3148 66.536 48.3148 52.5738C48.3148 42.9209 41.9065 34.1299 29.7646 33.4404L45.9539 17.7544V10.4286H3.03548V23.4427H26.0546L10.5399 38.6978L15.4304 45.4203C17.9599 44.2999 20.7425 43.6104 23.3564 43.6104C29.2587 43.6104 33.559 46.2822 33.559 51.7119C33.559 56.8831 30.0176 60.072 23.6936 60.072C17.5384 60.072 13.744 57.2279 13.744 52.7462V52.4014H0V53.4357C0 65.588 9.19077 73 24.2839 73ZM76.0497 62.5714C90.131 62.5714 100.081 56.1074 100.081 42.1452C100.081 32.4923 93.6724 23.7013 81.5305 23.0118L97.7197 7.32586V0H54.8013V13.0142H77.8204L62.3057 28.2692L67.1962 34.9917C69.7258 33.8713 72.5083 33.1818 75.1222 33.1818C81.0246 33.1818 85.3248 35.8536 85.3248 41.2834C85.3248 46.4545 81.7834 49.6434 75.4595 49.6434C69.3042 49.6434 65.5098 46.7993 65.5098 42.3176V41.9728H51.7659V43.0071C51.7659 55.1594 60.9566 62.5714 76.0497 62.5714ZM151.846 73V59.3637H121.596C124.102 57.465 127.646 55.3937 132.832 52.373C144.759 45.296 151.501 39.7724 151.501 28.2938C151.501 16.5563 141.302 10.4286 127.473 10.4286C111.829 10.4286 103.532 18.2824 103.532 31.6597V34.3352H117.447V32.7817C117.447 27.3444 120.559 23.6333 127.127 23.6333C131.881 23.6333 135.511 25.7909 135.511 29.761C135.511 35.3708 130.325 39.082 120.991 45.2097C108.285 53.5813 104.05 59.709 103.877 68.6847V73H151.846ZM173.761 60.8333L200.161 7.27262V0H155.298V13.6041H181.447L157.303 60.8333H173.761Z" fill="white"/>
</svg>
