<svg width="208" height="106" viewBox="0 0 208 106" fill="none" xmlns="http://www.w3.org/2000/svg">
<path d="M26.8381 38.4132C26.2774 35.8186 27.5592 34.3772 29.7703 33.208C33.2312 31.3822 36.5799 29.3321 39.9767 27.3621C42.4441 25.9207 42.4441 23.1339 39.9606 21.6924C36.1953 19.5143 32.446 17.3201 28.6647 15.1739C27.3989 14.4532 26.758 13.4762 26.8381 11.9867C26.9022 10.9297 26.8542 9.85659 26.8542 8.78351C26.8381 7.66239 27.3509 6.81354 28.2802 6.26899C31.6609 4.29902 35.0577 2.32905 38.4705 0.40712C39.9767 -0.44173 41.7552 0.0867995 42.5563 1.52824C43.3895 3.00172 42.9408 4.71544 41.4507 5.62835C40.201 6.38111 38.9031 7.08581 37.6374 7.83857C35.3141 9.19993 35.2981 12.0348 37.6213 13.3961C41.3226 15.5583 45.0718 17.6564 48.757 19.8666C50.2631 20.7635 51.593 20.7155 53.0831 19.8506C58.7872 16.5032 64.5232 13.22 70.2593 9.92065C72.3102 8.73547 74.4893 9.68041 74.9539 11.9387C75.1943 13.1559 74.5534 14.3891 73.2235 15.1579C69.4101 17.3681 65.6128 19.5623 61.7834 21.7565C60.9502 22.237 60.3574 22.8616 60.117 23.8066C59.7485 25.248 60.3574 26.5293 61.7673 27.3621C65.3885 29.4602 68.9775 31.6064 72.6627 33.6244C74.3771 34.5693 75.1943 35.8026 75.018 37.7405C74.9539 38.4773 75.002 39.23 75.002 39.9828C75.018 41.3281 74.4572 42.3211 73.2716 42.9938C69.4261 45.188 65.5967 47.4142 61.7673 49.6244C60.3413 50.4412 59.7645 51.7386 60.117 53.18C60.3574 54.157 60.9983 54.7816 61.8475 55.2781C65.5967 57.4242 69.33 59.6024 73.0793 61.7326C74.4092 62.4853 75.0661 63.5264 75.002 65.0479C74.9699 66.0409 75.002 67.0179 74.986 68.0109C74.986 69.196 74.5053 70.141 73.4638 70.7336C70.1952 72.6395 66.9106 74.5294 63.6099 76.4033C62.1198 77.2521 60.3093 76.7396 59.5082 75.3302C58.659 73.8567 59.1396 72.0789 60.6458 71.166C61.7673 70.4933 62.905 69.8687 64.0426 69.2121C66.5581 67.7386 66.5741 64.9518 64.0586 63.4943C60.2933 61.3161 56.5119 59.17 52.7627 56.9598C51.4809 56.207 50.2952 56.207 49.0134 56.9598C43.2292 60.3232 37.4291 63.6705 31.6289 67.0018C29.6741 68.139 27.6393 67.4983 26.9503 65.5764C26.4055 64.0389 26.9824 62.5013 28.4404 61.6685C32.1416 59.5384 35.8428 57.4082 39.5601 55.3261C41.0181 54.5093 41.8193 53.4523 41.611 51.7065C41.5789 51.4022 41.8513 50.9057 42.1237 50.7456C43.9022 49.6565 45.6967 48.6154 47.5233 47.6384C47.8277 47.4783 48.4045 47.5263 48.6929 47.7185C50.183 48.6955 51.5449 48.5353 53.019 47.6545C56.6241 45.5243 60.2772 43.4743 63.9144 41.3922C66.5421 39.8867 66.5581 37.1319 63.9464 35.6104C60.2292 33.4482 56.4959 31.3341 52.7947 29.1559C51.4488 28.3711 50.2311 28.4032 48.9012 29.188C45.2321 31.3501 41.5308 33.4803 37.8136 35.5944C36.5799 36.2991 35.8428 37.244 35.8428 38.7335C35.8428 39.0218 35.6185 39.4222 35.3782 39.5664C33.4555 40.7195 31.5167 41.8567 29.562 42.9297C29.2576 43.0899 28.6968 43.0579 28.3763 42.8977C27.3669 42.4012 26.8221 41.5523 26.8061 40.3992C26.8221 39.6945 26.8381 39.0538 26.8381 38.4132Z" fill="#F6F7EB"/>
<path d="M49.2697 95.0302C49.8625 97.9291 48.4205 99.5467 45.969 100.796C43.117 102.253 40.4092 103.967 37.6213 105.537C36.1151 106.386 34.2725 106.033 33.183 104.768C32.1255 103.519 32.0454 101.629 33.0709 100.331C33.3753 99.9471 33.7919 99.6107 34.2085 99.3545C35.3621 98.6498 36.5638 97.9931 37.7334 97.3044C39.6561 96.1673 39.6721 93.845 37.7494 92.7239C33.856 90.4496 29.9464 88.2233 26.0369 85.9651C25.0275 85.3885 24.0822 85.5166 23.0888 86.0772C17.2726 89.4566 11.4564 92.8039 5.64022 96.1673C3.78161 97.2404 1.77879 96.888 0.673231 95.3024C-0.576529 93.5086 -0.0157393 91.0422 1.93901 89.905C5.70432 87.7268 9.43757 85.5006 13.267 83.4666C15.3339 82.3615 15.446 79.7348 13.2509 78.5496C9.50166 76.5316 5.84852 74.3054 2.14731 72.1913C0.705276 71.3745 -0.0317619 70.2213 0.048351 68.5396C0.0964186 67.5466 0.0643735 66.5696 0.048351 65.5766C0.0163058 64.1032 0.673231 63.0141 1.92299 62.2933C5.80045 60.0511 9.67791 57.8089 13.5554 55.5666C14.9493 54.7658 15.446 53.2763 14.6769 52.0431C14.4046 51.5946 13.9399 51.1942 13.4753 50.9219C9.82211 48.7758 6.16897 46.6297 2.45174 44.5636C0.785389 43.6026 -0.111875 42.3534 0.048351 40.3674C0.128464 39.4384 0.0643735 38.4935 0.0643735 37.5646C0.0643735 36.2512 0.609141 35.2262 1.73072 34.5696C5.15955 32.5676 8.58838 30.5655 12.0653 28.6276C13.7797 27.6666 15.9107 28.3553 16.84 30.037C17.7533 31.7027 17.1925 33.7688 15.5261 34.7778C14.2764 35.5305 12.9786 36.2352 11.7128 36.988C9.69393 38.1732 9.67791 40.4795 11.6968 41.6487C15.5422 43.8909 19.4036 46.1011 23.265 48.3434C24.2905 48.936 25.2518 48.8559 26.2773 48.2633C32.0935 44.8839 37.9097 41.5365 43.7259 38.1732C45.2961 37.2763 46.9304 37.3884 48.1 38.4294C49.9106 40.0631 49.6542 42.8659 47.5072 44.1472C45.0878 45.5886 42.6203 46.982 40.1688 48.3914C38.7108 49.2243 37.2688 50.0731 35.8107 50.9059C34.7532 51.5145 34.2245 52.3794 34.3687 53.6126C34.4648 54.4295 34.1764 54.974 33.4394 55.3744C31.741 56.3033 30.0426 57.2803 28.3602 58.2733C27.6392 58.7057 26.9663 58.7058 26.2613 58.2573C25.1877 57.5526 24.1303 57.6327 23.0407 58.2733C19.3075 60.4515 15.5582 62.5976 11.8249 64.7598C9.62984 66.0251 9.62984 68.3154 11.857 69.5807C15.5902 71.7428 19.3555 73.889 23.0728 76.0672C24.1303 76.6758 25.1076 76.6758 26.1651 76.0672C29.9464 73.873 33.7438 71.7108 37.5572 69.5486C38.6147 68.956 39.1274 68.1232 39.1915 66.906C39.2235 66.4575 39.56 65.8649 39.9285 65.6247C41.8352 64.4395 43.7739 63.3184 45.7447 62.2773C46.1773 62.0531 46.9304 62.0691 47.379 62.2933C48.5967 62.8699 49.2376 63.943 49.2536 65.3204C49.2697 66.4896 49.2536 67.6747 49.2536 68.8439C49.2536 70.2854 48.6288 71.3424 47.379 72.0631C43.5656 74.2573 39.7523 76.4676 35.9549 78.6618C33.7118 79.9591 33.7278 82.2333 35.9709 83.5306C39.592 85.6287 43.1971 87.7589 46.8663 89.7769C48.5807 90.7218 49.4459 92.0191 49.2536 93.9891C49.2536 94.3415 49.2697 94.6938 49.2697 95.0302ZM48.3083 95.0462C48.3083 94.7739 48.2763 94.5016 48.3083 94.2454C48.5326 92.4676 47.7475 91.3785 46.1933 90.5297C42.5242 88.5276 38.9351 86.3655 35.298 84.2834C34.4969 83.8349 33.888 83.2263 33.5675 82.3775C32.9266 80.6958 33.5676 78.934 35.2019 77.9891C39.0793 75.7308 42.9568 73.5046 46.8342 71.2623C47.7155 70.7498 48.2602 70.0451 48.2763 69.0201C48.3083 67.7869 48.2923 66.5696 48.2763 65.3364C48.2602 64.4715 47.8917 63.7508 47.1547 63.3344C46.8503 63.1582 46.3055 63.1102 46.0011 63.2543C44.1745 64.2473 42.38 65.2883 40.6015 66.3614C40.3611 66.5056 40.1208 66.8739 40.1048 67.1462C40.0407 68.5877 39.3837 69.6127 38.134 70.3174C34.3366 72.4796 30.5393 74.6417 26.758 76.8359C25.2679 77.7008 23.8739 77.7008 22.3838 76.8359C18.6986 74.6738 14.9974 72.5596 11.3122 70.4295C8.44417 68.7638 8.44417 65.5446 11.3122 63.895C15.0775 61.7168 18.8428 59.5546 22.6081 57.3764C23.954 56.5916 25.2839 56.5276 26.6138 57.3444C27.1265 57.6647 27.511 57.6167 28.0077 57.3284C29.5619 56.3994 31.1321 55.5025 32.7344 54.6217C33.2311 54.3494 33.4073 54.0611 33.3593 53.5005C33.2471 52.0431 33.856 50.922 35.1217 50.1692C35.5543 49.9129 36.003 49.6567 36.4356 49.4164C39.8965 47.4144 43.3573 45.4124 46.8182 43.4104C48.4205 42.4815 48.773 40.6076 47.6033 39.3584C46.7221 38.4134 45.4883 38.3013 44.1745 39.0541C38.3583 42.4174 32.5261 45.7648 26.7259 49.1282C25.348 49.929 24.0341 49.961 22.6402 49.1442C18.8428 46.934 15.0134 44.7398 11.2161 42.5456C8.49224 40.96 8.50826 37.7247 11.2321 36.1231C12.4658 35.3864 13.7316 34.6977 14.9654 33.961C16.2311 33.1922 16.5997 31.7187 15.9107 30.4855C15.2217 29.2682 13.6996 28.8198 12.4338 29.5405C9.05303 31.4624 5.67227 33.4164 2.30753 35.3543C1.42629 35.8669 0.993682 36.6516 0.993682 37.6767C0.993682 38.6697 1.04175 39.6466 0.977659 40.6396C0.897547 42.001 1.5064 42.8819 2.67605 43.5546C6.42533 45.6847 10.1586 47.8629 13.9079 50.025C16.7278 51.6587 16.7118 54.8939 13.8918 56.5276C10.1105 58.7058 6.3292 60.916 2.53185 63.0781C1.49038 63.6867 0.945614 64.5356 0.993682 65.7528C1.02573 66.6657 1.04175 67.5626 0.993682 68.4755C0.929592 69.8369 1.52243 70.7338 2.69207 71.3905C6.42533 73.4726 10.1105 75.6187 13.8117 77.7488C16.6317 79.3825 16.6477 82.6337 13.8117 84.2514C10.7514 85.9971 7.70714 87.7429 4.64683 89.4886C3.81365 89.9691 2.96446 90.4175 2.16333 90.9461C1.08982 91.6348 0.721298 93.0922 1.25004 94.2934C1.74674 95.4306 3.02855 96.0712 4.23024 95.7349C4.6308 95.6228 5.01534 95.3985 5.38386 95.1903C11.1199 91.891 16.84 88.5917 22.56 85.2604C24.0181 84.4115 25.396 84.4115 26.8541 85.2604C30.6194 87.4706 34.4328 89.6327 38.2141 91.8269C40.8899 93.3805 40.8578 96.6318 38.166 98.2013C37.0124 98.874 35.8588 99.5307 34.7052 100.203C33.9681 100.636 33.4874 101.228 33.3913 102.093C33.2631 103.15 33.6316 103.999 34.5129 104.576C35.4262 105.168 36.3555 105.152 37.3008 104.608C40.0246 103.038 42.7004 101.357 45.4883 99.9311C47.5873 98.874 48.8851 97.5447 48.3083 95.0462Z" fill="#F6F7EB"/>
<path d="M124.083 21.0744C124.083 21.6066 124.083 22.1858 124.083 22.8902C123.378 22.8902 122.736 22.8902 122.094 22.8902C121.452 22.8902 120.794 22.8902 120.09 22.8902C120.09 17.1768 120.09 11.5103 120.09 5.79688C121.405 5.79688 122.689 5.79688 124.067 5.79688C124.067 7.83179 124.067 9.81975 124.067 11.9173C126.479 8.42662 131.866 9.36581 133.228 13.467C133.494 14.2653 133.635 15.1418 133.698 15.9871C133.792 17.5368 133.541 19.0395 132.727 20.417C131.349 22.7806 128.311 23.7668 125.946 22.5302C125.273 22.1858 124.725 21.5753 124.083 21.0744ZM124.067 16.3785C124.067 17.9594 124.835 19.1491 126.103 19.4308C127.215 19.6813 128.264 19.5247 129 18.5542C129.877 17.3803 129.877 16.0654 129.313 14.7818C128.859 13.7174 127.935 13.2948 126.776 13.3104C125.132 13.3417 124.083 14.5314 124.067 16.3785Z" fill="#F6F7EB"/>
<path d="M128.154 23.375C127.355 23.375 126.557 23.1872 125.821 22.8115C125.32 22.5454 124.881 22.1697 124.474 21.794C124.458 21.7784 124.427 21.7627 124.411 21.7471V23.2028H119.807V5.4834H124.411V11.0403C125.586 9.83499 127.23 9.27148 128.968 9.52193C131.114 9.83499 132.867 11.3064 133.541 13.3726C133.807 14.1553 133.964 15.0319 134.026 15.971C134.136 17.6929 133.791 19.2582 133.024 20.5887C131.959 22.3576 130.049 23.375 128.154 23.375ZM123.769 20.4166L124.286 20.8235C124.49 20.9957 124.693 21.1679 124.881 21.3401C125.288 21.7001 125.664 22.0445 126.102 22.2636C128.295 23.4063 131.161 22.4984 132.46 20.26C133.181 19.0234 133.494 17.6303 133.384 16.0024C133.322 15.1258 133.181 14.2962 132.93 13.5605C132.319 11.7134 130.753 10.4142 128.859 10.1324C127.058 9.88195 125.366 10.602 124.333 12.0891L123.769 12.9187V6.10953H120.418V22.5767H123.769V20.4166ZM126.979 19.8374C126.682 19.8374 126.369 19.8061 126.024 19.7278C124.615 19.4148 123.738 18.1312 123.738 16.378C123.738 14.3744 124.928 13.0439 126.745 12.9969C128.107 12.9656 129.093 13.5291 129.579 14.6562C130.237 16.1589 130.111 17.5677 129.219 18.7417C128.686 19.4617 127.935 19.8374 126.979 19.8374ZM126.885 13.6231C126.854 13.6231 126.823 13.6231 126.792 13.6231C125.32 13.6544 124.396 14.7188 124.396 16.378C124.396 17.8181 125.069 18.8669 126.181 19.1173C127.34 19.3678 128.17 19.1173 128.749 18.3503C129.501 17.3485 129.595 16.1902 129.031 14.891C128.655 14.0457 127.935 13.6231 126.885 13.6231Z" fill="#F6F7EB"/>
<path d="M178.03 11.9007C178.03 11.1807 178.03 10.6015 178.03 9.9597C179.377 9.9597 180.645 9.9597 181.961 9.9597C181.961 14.233 181.961 18.4907 181.961 22.811C180.692 22.811 179.44 22.811 178.077 22.811C178.077 22.2475 178.077 21.6683 178.077 21.0109C177.921 21.0735 177.811 21.0735 177.795 21.1048C176.276 23.6719 171.406 23.8754 169.48 20.5256C167.898 17.7707 167.898 14.8748 169.543 12.1355C171.093 9.55272 174.757 8.94225 176.981 10.7737C177.31 11.0711 177.576 11.4311 178.03 11.9007ZM172.455 16.3932C172.455 18.1463 173.254 19.2577 174.71 19.4769C176.543 19.7586 177.905 18.6159 178.046 16.6593C178.187 14.64 176.997 13.2782 175.133 13.3251C173.458 13.3408 172.455 14.4991 172.455 16.3932Z" fill="#F6F7EB"/>
<path d="M173.942 23.3746C173.927 23.3746 173.927 23.3746 173.911 23.3746C171.922 23.3589 170.153 22.3571 169.198 20.6979C167.538 17.8177 167.569 14.8123 169.26 11.9947C170.043 10.6798 171.406 9.78758 172.972 9.50583C174.506 9.23972 176.041 9.6154 177.168 10.5546C177.356 10.7111 177.529 10.899 177.716 11.0868V9.64671H182.273V23.1241H177.763V21.6997C176.918 22.7484 175.508 23.3746 173.942 23.3746ZM173.927 10.0537C173.645 10.0537 173.363 10.085 173.081 10.132C171.688 10.3668 170.497 11.1651 169.808 12.3234C168.227 14.9375 168.211 17.7238 169.746 20.4005C170.591 21.8719 172.157 22.7484 173.911 22.7641C173.927 22.7641 173.927 22.7641 173.942 22.7641C175.508 22.7641 176.871 22.091 177.529 20.9796C177.607 20.8388 177.748 20.8074 177.842 20.7761C177.873 20.7605 177.92 20.7605 177.983 20.7448L178.39 20.604V22.5293H181.647V10.2885H178.343V12.6991L177.795 12.1356C177.638 11.979 177.497 11.8225 177.388 11.6816C177.153 11.4312 176.98 11.2277 176.777 11.0555C175.994 10.3981 174.976 10.0537 173.927 10.0537ZM175.258 19.8213C175.07 19.8213 174.866 19.8056 174.663 19.7743C173.066 19.5239 172.157 18.2873 172.157 16.3776C172.157 14.3114 173.3 13.0121 175.133 12.9808C176.088 12.9652 176.902 13.2783 177.497 13.8887C178.139 14.5618 178.437 15.5323 178.374 16.6437C178.296 17.7081 177.873 18.6003 177.184 19.1639C176.62 19.6022 175.978 19.8213 175.258 19.8213ZM172.768 16.3932C172.768 17.9899 173.473 18.9604 174.757 19.1639C175.54 19.2891 176.244 19.1326 176.761 18.6943C177.325 18.2403 177.669 17.5046 177.716 16.628C177.779 15.6888 177.529 14.8749 177.012 14.3427C176.542 13.8574 175.9 13.607 175.117 13.6226C173.629 13.6539 172.768 14.6557 172.768 16.3932Z" fill="#F6F7EB"/>
<path d="M104.023 9.95996C105.464 9.95996 106.716 9.95996 108.047 9.95996C108.063 10.2417 108.079 10.5078 108.079 10.7896C108.079 12.9341 108.047 15.0629 108.094 17.2074C108.126 19.0545 109.598 20.0876 111.367 19.6023C112.448 19.3049 113.106 18.3657 113.121 17.0196C113.137 14.9533 113.121 12.9028 113.121 10.8365C113.121 10.5548 113.121 10.273 113.121 9.95996C114.499 9.95996 115.783 9.95996 117.114 9.95996C117.114 14.2646 117.114 18.5223 117.114 22.8426C115.799 22.8426 114.515 22.8426 113.153 22.8426C113.153 22.2321 113.153 21.606 113.153 20.8546C112.98 20.9955 112.886 21.0424 112.839 21.1051C111.477 22.9052 109.613 23.3435 107.531 22.8269C105.777 22.3886 104.54 21.152 104.383 19.4145C104.101 16.2839 104.133 13.1376 104.023 9.95996Z" fill="#F6F7EB"/>
<path d="M109.112 23.3436C108.595 23.3436 108.047 23.281 107.468 23.1401C105.51 22.6548 104.257 21.2773 104.085 19.4459C103.882 17.2388 103.835 14.9691 103.788 12.7776C103.772 11.8541 103.741 10.8993 103.709 9.96007L103.694 9.63135H108.345L108.36 9.92876C108.36 10.0227 108.376 10.1009 108.376 10.1949C108.391 10.3827 108.407 10.5862 108.407 10.774C108.407 11.4784 108.407 12.1672 108.407 12.8716C108.407 14.2804 108.391 15.7518 108.423 17.1919C108.438 17.9745 108.736 18.6163 109.268 19.0076C109.801 19.4146 110.521 19.5085 111.304 19.2894C112.259 19.0233 112.807 18.1937 112.823 17.004C112.839 15.5639 112.839 14.0925 112.823 12.6681C112.823 12.0576 112.823 11.4315 112.823 10.821V9.63135H117.443V23.1401H112.854V21.5904C111.852 22.7644 110.599 23.3436 109.112 23.3436ZM104.351 10.2731C104.383 11.1028 104.398 11.948 104.414 12.762C104.461 14.9378 104.508 17.1919 104.711 19.3833C104.852 20.933 105.949 22.107 107.624 22.5139C109.723 23.0305 111.398 22.4826 112.604 20.9017C112.667 20.8234 112.729 20.7764 112.807 20.7138C112.854 20.6825 112.901 20.6512 112.964 20.5886L113.481 20.1816V22.5139H116.816V10.2731H113.45V10.8366C113.45 11.4471 113.45 12.0733 113.45 12.6837C113.45 14.1082 113.45 15.5796 113.45 17.0197C113.434 18.4911 112.698 19.5555 111.476 19.8999C110.506 20.166 109.597 20.0251 108.893 19.5085C108.204 18.992 107.828 18.178 107.796 17.2075C107.765 15.7674 107.765 14.296 107.781 12.8716C107.781 12.1672 107.781 11.4784 107.781 10.774C107.781 10.6018 107.765 10.4297 107.765 10.2575H104.351V10.2731Z" fill="#F6F7EB"/>
<path d="M206.719 18.3343C206.437 19.7744 205.716 20.8857 204.604 21.7154C201.018 24.4077 195.616 22.8893 194.379 18.7726C193.596 16.1741 193.815 13.6383 195.819 11.5564C197.605 9.69369 200.909 9.20845 203.477 10.3511C205.81 11.3842 207.063 13.5757 206.953 16.3776C206.938 16.9411 206.766 17.1446 206.17 17.129C203.493 17.0977 200.799 17.129 198.121 17.129C198.09 17.129 198.074 17.1446 198.043 17.1603C197.839 18.2716 198.372 19.2578 199.374 19.6491C200.486 20.0718 201.707 19.7587 202.256 18.7882C202.506 18.3499 202.788 18.2403 203.242 18.256C204.291 18.2873 205.325 18.2716 206.374 18.2716C206.468 18.2716 206.531 18.303 206.719 18.3343ZM202.851 15.4071C202.913 13.8418 201.88 12.8713 200.361 12.9496C198.904 13.0278 197.918 14.0922 198.09 15.4071C199.64 15.4071 201.222 15.4071 202.851 15.4071Z" fill="#F6F7EB"/>
<path d="M200.517 23.4061C199.765 23.4061 198.998 23.2809 198.246 23.0461C196.179 22.373 194.66 20.8547 194.065 18.8824C193.157 15.8769 193.674 13.3411 195.584 11.3688C197.432 9.44347 200.877 8.87996 203.586 10.0853C206.029 11.1653 207.36 13.4664 207.25 16.4092C207.219 17.1605 206.906 17.4736 206.154 17.4579C204.134 17.4423 202.083 17.4423 200.094 17.4579C199.499 17.4579 198.904 17.4579 198.309 17.4579C198.231 18.3188 198.685 19.0546 199.483 19.3676C200.47 19.7433 201.535 19.4459 201.989 18.6476C202.349 18.0214 202.819 17.9432 203.257 17.9588C203.946 17.9745 204.667 17.9745 205.34 17.9745C205.684 17.9745 206.029 17.9745 206.373 17.9745C206.467 17.9745 206.53 17.9901 206.624 18.0214C206.671 18.0371 206.718 18.0527 206.781 18.0527L207.078 18.1154L207.016 18.4128C206.718 19.9155 205.982 21.0738 204.776 21.9974C203.555 22.9209 202.051 23.4061 200.517 23.4061ZM200.517 10.0539C198.794 10.0539 197.119 10.6644 196.038 11.7758C194.3 13.5916 193.846 15.9083 194.676 18.6789C195.208 20.4477 196.586 21.8095 198.45 22.42C200.485 23.0931 202.725 22.7331 204.416 21.4651C205.418 20.7138 206.06 19.7589 206.358 18.5693C206.029 18.5693 205.7 18.5693 205.371 18.5693C204.682 18.5693 203.962 18.5693 203.257 18.5536C202.897 18.538 202.74 18.6006 202.553 18.9293C201.942 20.0094 200.564 20.4164 199.28 19.9311C198.137 19.4928 197.51 18.3502 197.745 17.0979L197.776 16.9414L197.933 16.8788C197.964 16.8631 198.027 16.8161 198.121 16.8161C198.779 16.8161 199.452 16.8161 200.11 16.8161C202.098 16.8161 204.15 16.8005 206.17 16.8161C206.577 16.8161 206.608 16.7848 206.624 16.3622C206.718 13.7011 205.512 11.6036 203.336 10.6331C202.443 10.2418 201.472 10.0539 200.517 10.0539ZM203.148 15.7204H197.808L197.776 15.4543C197.682 14.7812 197.87 14.1238 198.293 13.6072C198.763 13.0281 199.499 12.6837 200.345 12.6367C201.175 12.5898 201.926 12.8402 202.427 13.3411C202.944 13.842 203.195 14.5621 203.163 15.423L203.148 15.7204ZM198.371 15.0943H202.521C202.49 14.5621 202.302 14.1081 201.973 13.7794C201.582 13.4037 201.034 13.2159 200.36 13.2629C199.687 13.2942 199.123 13.5603 198.763 14.0142C198.512 14.3116 198.371 14.6873 198.371 15.0943Z" fill="#F6F7EB"/>
<path d="M101.69 14.2643C100.562 14.2643 99.4662 14.28 98.3857 14.2487C98.2135 14.2487 97.9786 13.9982 97.8846 13.826C97.3679 12.8712 96.3656 12.339 95.4261 12.6833C95.0816 12.8086 94.6431 13.2312 94.6118 13.5443C94.5805 13.8573 94.925 14.4208 95.2382 14.5461C96.1464 14.9061 97.133 15.0939 98.0725 15.3913C98.8868 15.6575 99.7481 15.8922 100.453 16.3462C102.207 17.4576 102.442 19.9621 101.095 21.5431C99.1844 23.7658 92.3568 23.8441 91.0571 19.5551C90.9631 19.2577 90.9005 18.9603 90.8065 18.5846C92.1063 18.5846 93.3434 18.5846 94.5805 18.5846C95.1599 19.8838 95.8645 20.3378 97.1486 20.2125C97.7437 20.1656 98.1508 19.8682 98.2448 19.2733C98.3387 18.6942 98.0412 18.3028 97.5088 18.1463C96.6475 17.8802 95.7549 17.6611 94.878 17.4106C94.2829 17.2384 93.6566 17.1132 93.0771 16.8784C90.7126 15.8922 90.1645 12.8242 92.0123 11.0554C94.9563 8.25348 100.719 9.91272 101.674 13.826C101.674 13.9669 101.674 14.0921 101.69 14.2643Z" fill="#F6F7EB"/>
<path d="M96.772 23.3589C96.1926 23.3589 95.5975 23.2963 95.0025 23.1867C92.7945 22.7171 91.2755 21.4649 90.7117 19.6648C90.6491 19.4613 90.6021 19.2578 90.5395 19.0386C90.5082 18.9291 90.4768 18.8195 90.4455 18.6943L90.3516 18.3029H94.7362L94.8145 18.4908C95.347 19.6804 95.9107 20.0404 97.0695 19.9309C97.7116 19.8683 97.8368 19.5239 97.8838 19.2578C97.9465 18.8665 97.7742 18.6003 97.367 18.4751C96.819 18.3029 96.2396 18.1464 95.6915 18.0055C95.3783 17.9273 95.0651 17.8333 94.7519 17.7394C94.5953 17.6925 94.4231 17.6455 94.2508 17.5985C93.8123 17.489 93.3582 17.3637 92.9197 17.1916C91.7139 16.6907 90.8683 15.6262 90.6178 14.3583C90.3829 13.0748 90.8057 11.7599 91.7453 10.8677C93.2016 9.49017 95.4566 9.03623 97.6646 9.67801C99.8256 10.3198 101.47 11.8851 101.94 13.7948C101.971 13.9044 101.971 14.014 101.971 14.1235C101.971 14.1705 101.971 14.2174 101.987 14.2801L102.018 14.6088H101.673C101.392 14.6088 101.11 14.6088 100.828 14.6088C99.9822 14.6088 99.1679 14.6088 98.3379 14.5931C97.9934 14.5775 97.6959 14.2331 97.5706 13.9983C97.1008 13.1374 96.2552 12.7147 95.4879 12.9965C95.206 13.0904 94.8928 13.4348 94.8772 13.607C94.8615 13.7792 95.1121 14.2018 95.3 14.2801C95.8168 14.4835 96.3648 14.6244 96.9286 14.781C97.3201 14.8905 97.7272 14.9845 98.1187 15.1253C98.244 15.1723 98.3693 15.2036 98.5102 15.2506C99.2149 15.4697 99.9352 15.7045 100.577 16.1115C101.454 16.675 102.034 17.5672 102.19 18.6317C102.362 19.7743 102.034 20.917 101.282 21.7779C100.421 22.7641 98.6511 23.3589 96.772 23.3589ZM91.1659 18.8978C91.2128 19.1012 91.2598 19.2891 91.3225 19.4613C91.9802 21.5901 93.9846 22.3258 95.1434 22.5606C97.3514 23.0302 99.8413 22.4823 100.828 21.3397C101.454 20.604 101.736 19.6491 101.595 18.6943C101.47 17.8177 100.984 17.0663 100.264 16.6124C99.7003 16.2524 99.0113 16.0332 98.3536 15.8297C98.2283 15.7828 98.0874 15.7515 97.9621 15.7045C97.5863 15.5793 97.1948 15.4697 96.819 15.3758C96.2552 15.2192 95.6758 15.0784 95.1121 14.8436C94.6736 14.6714 94.2508 13.9826 94.2978 13.5287C94.3448 13.0591 94.8772 12.5582 95.3156 12.4017C96.3805 12.0103 97.555 12.5425 98.1657 13.6852C98.2283 13.8105 98.3693 13.9357 98.4162 13.9513C99.2149 13.9826 100.014 13.9826 100.859 13.967C101.031 13.967 101.204 13.967 101.376 13.967C101.376 13.9513 101.376 13.9357 101.36 13.92C100.953 12.2295 99.4811 10.8207 97.5236 10.2415C95.5349 9.66236 93.5148 10.0693 92.2151 11.2903C91.4164 12.0416 91.0719 13.1374 91.2598 14.2174C91.4634 15.2819 92.1837 16.1741 93.1859 16.5811C93.5774 16.7376 94.0002 16.8472 94.4387 16.9724C94.611 17.0194 94.7832 17.0663 94.9398 17.1133C95.253 17.2072 95.5662 17.2855 95.8794 17.3637C96.4431 17.5203 97.0225 17.6768 97.5863 17.849C98.291 18.0681 98.6511 18.6317 98.5415 19.336C98.4162 20.0404 97.9308 20.4631 97.1635 20.5257C95.8011 20.6509 94.9868 20.1813 94.3604 18.8978H91.1659Z" fill="#F6F7EB"/>
<path d="M146.649 14.2649C145.27 14.2649 144.174 14.2806 143.094 14.2493C142.922 14.2493 142.687 13.9988 142.593 13.811C142.123 12.9188 141.183 12.3709 140.275 12.637C139.899 12.7466 139.476 13.1222 139.32 13.4823C139.101 14.0145 139.492 14.4371 140.025 14.5937C140.917 14.8754 141.825 15.0789 142.718 15.3607C143.485 15.6111 144.3 15.799 144.973 16.2059C147.244 17.5521 147.212 20.7767 144.973 22.1855C142.828 23.516 139.007 23.2499 137.081 21.6063C136.172 20.8236 135.687 19.8218 135.499 18.5226C136.72 18.5226 137.879 18.507 139.038 18.5383C139.179 18.5383 139.351 18.82 139.445 19.0079C139.884 19.9627 141.262 20.5575 142.217 20.1036C142.53 19.9627 142.859 19.5088 142.859 19.18C142.875 18.8513 142.593 18.3504 142.295 18.2095C141.622 17.8965 140.87 17.7556 140.134 17.5365C139.414 17.333 138.662 17.1764 137.957 16.926C136.752 16.5033 135.875 15.7363 135.671 14.4058C135.452 12.9657 135.796 11.7291 137.002 10.7899C139.257 9.03676 143.658 9.53766 145.364 11.823C145.881 12.4961 146.163 13.3257 146.649 14.2649Z" fill="#F6F7EB"/>
<path d="M141.558 23.3596C139.82 23.3596 138.035 22.843 136.876 21.8412C135.952 21.0429 135.389 19.9785 135.185 18.5697L135.138 18.2096H135.498C135.78 18.2096 136.062 18.2096 136.344 18.2096C137.268 18.2096 138.145 18.2096 139.037 18.2253C139.366 18.2409 139.601 18.6323 139.711 18.8671C139.899 19.2897 140.321 19.6341 140.822 19.8219C141.261 19.9785 141.715 19.9785 142.06 19.8063C142.263 19.7123 142.529 19.3523 142.529 19.1488C142.545 18.9453 142.31 18.554 142.138 18.4757C141.668 18.2566 141.167 18.1314 140.619 17.9905C140.415 17.9435 140.227 17.8809 140.024 17.834C139.773 17.7557 139.523 17.6931 139.272 17.6305C138.802 17.5052 138.301 17.38 137.832 17.2078C136.391 16.7069 135.545 15.7677 135.342 14.4372C135.091 12.7936 135.577 11.4788 136.782 10.5239C137.941 9.61602 139.711 9.22469 141.512 9.47514C143.265 9.70994 144.753 10.4926 145.583 11.6196C145.943 12.0892 146.194 12.6371 146.46 13.2163C146.585 13.498 146.726 13.7954 146.883 14.0928L147.118 14.5468H146.601C146.241 14.5468 145.912 14.5468 145.583 14.5468C144.643 14.5468 143.845 14.5468 143.03 14.5311C142.686 14.5155 142.388 14.1555 142.263 13.9207C141.84 13.1067 141.026 12.6841 140.306 12.9032C140.008 12.9971 139.664 13.2945 139.554 13.5763C139.507 13.7015 139.507 13.8111 139.554 13.905C139.632 14.0615 139.82 14.1868 140.055 14.265C140.462 14.3903 140.901 14.5155 141.308 14.6251C141.778 14.7503 142.279 14.8912 142.764 15.0477C142.905 15.0946 143.062 15.1416 143.203 15.1886C143.845 15.3764 144.502 15.5799 145.082 15.9243C146.225 16.5974 146.914 17.8027 146.93 19.1175C146.945 20.4637 146.256 21.7003 145.098 22.436C144.158 23.0778 142.858 23.3596 141.558 23.3596ZM135.874 18.8358C136.093 19.9158 136.547 20.7298 137.283 21.3716C139.1 22.9369 142.749 23.203 144.8 21.9351C145.771 21.3246 146.35 20.2915 146.335 19.1645C146.319 18.0688 145.755 17.067 144.8 16.5034C144.283 16.1904 143.657 16.0025 143.062 15.8303C142.905 15.7834 142.764 15.7364 142.608 15.6895C142.138 15.5329 141.652 15.4077 141.183 15.2825C140.76 15.1729 140.337 15.0477 139.914 14.9225C139.491 14.7972 139.178 14.5468 139.022 14.2337C138.896 13.9676 138.896 13.6859 139.006 13.4041C139.178 12.9502 139.679 12.5119 140.149 12.371C141.167 12.0736 142.263 12.6058 142.843 13.7015C142.905 13.8267 143.046 13.952 143.093 13.9676C143.892 13.9989 144.69 13.9989 145.599 13.9833C145.771 13.9833 145.943 13.9833 146.115 13.9833C146.037 13.8267 145.974 13.6859 145.912 13.5293C145.646 12.9502 145.426 12.4649 145.113 12.0423C144.377 11.0561 143.046 10.3674 141.465 10.1482C139.82 9.92908 138.223 10.2735 137.205 11.0718C136.172 11.8701 135.78 12.9658 135.999 14.3903C136.172 15.486 136.845 16.2373 138.082 16.66C138.536 16.8165 139.022 16.9417 139.476 17.067C139.726 17.1296 139.977 17.1922 140.227 17.2704C140.415 17.3331 140.619 17.38 140.807 17.427C141.355 17.5679 141.903 17.7087 142.435 17.9592C142.843 18.147 143.203 18.7575 143.187 19.2271C143.171 19.6654 142.78 20.2133 142.357 20.4167C141.856 20.6515 141.245 20.6672 140.635 20.448C139.977 20.2133 139.429 19.728 139.163 19.1645C139.1 19.0393 139.022 18.9297 138.975 18.8827C138.113 18.8514 137.252 18.8514 136.36 18.8671C136.187 18.8358 136.031 18.8358 135.874 18.8358Z" fill="#F6F7EB"/>
<path d="M183.981 9.91325C184.544 9.91325 185.061 9.91325 185.641 9.91325C185.641 8.86448 185.641 7.87833 185.641 6.84521C187.003 6.84521 188.287 6.84521 189.65 6.84521C189.65 7.84702 189.65 8.81752 189.65 9.88194C190.511 9.88194 191.309 9.88194 192.171 9.88194C192.171 11.0403 192.171 12.1203 192.171 13.2787C191.388 13.2787 190.589 13.2787 189.712 13.2787C189.712 15.0945 189.681 16.832 189.728 18.5695C189.743 19.1643 190.229 19.3834 190.761 19.4304C191.215 19.4617 191.685 19.4304 192.202 19.4304C192.202 20.5887 192.202 21.6845 192.202 22.8585C190.667 22.9054 189.101 23.0306 187.661 22.2636C186.063 21.4184 185.719 19.9 185.672 18.2877C185.625 16.6754 185.656 15.0632 185.656 13.3726C185.093 13.3413 184.56 13.31 183.981 13.2787C183.981 12.1673 183.981 11.1029 183.981 9.91325Z" fill="#F6F7EB"/>
<path d="M190.761 23.2024C189.665 23.2024 188.553 23.0928 187.504 22.5293C185.672 21.5588 185.39 19.7431 185.358 18.2873C185.327 17.1603 185.343 16.0645 185.343 14.9062C185.343 14.4992 185.343 14.0766 185.343 13.6696L183.667 13.5757V9.59977H185.327V6.53174H189.962V9.56846H192.483V13.5913H190.025C190.025 13.9983 190.025 14.4053 190.025 14.8123C190.025 16.0959 190.009 17.3168 190.041 18.5534C190.041 18.6786 190.056 19.0543 190.792 19.1013C191.09 19.1169 191.403 19.1169 191.732 19.1169C191.888 19.1169 192.045 19.1169 192.202 19.1169H192.515V23.1555L191.935 23.1711C191.544 23.1868 191.152 23.2024 190.761 23.2024ZM184.293 12.9652L185.969 13.0591V13.3565C185.969 13.8731 185.969 14.3897 185.969 14.8906C185.969 16.0489 185.953 17.1446 185.985 18.256C186.016 19.6335 186.267 21.1518 187.801 21.9658C189.085 22.6389 190.448 22.5919 191.888 22.545V19.7431C191.841 19.7431 191.794 19.7431 191.747 19.7431C191.403 19.7431 191.074 19.7587 190.745 19.7274C189.915 19.6648 189.43 19.2422 189.414 18.5691C189.383 17.3325 189.399 16.0959 189.399 14.8123C189.399 14.3114 189.399 13.7948 189.399 13.2783V12.9652H191.857V10.1946H189.336V7.15787H185.953V10.2259H184.293V12.9652Z" fill="#F6F7EB"/>
<path d="M156.295 22.9211C155.277 22.8741 154.306 22.9054 153.366 22.7489C151.017 22.3889 149.843 21.0271 149.78 18.6478C149.733 16.9103 149.765 15.1571 149.765 13.3413C149.17 13.3413 148.668 13.3413 148.089 13.3413C148.089 12.183 148.089 11.1029 148.089 9.94458C148.59 9.91327 149.123 9.89762 149.733 9.86631C149.733 8.84885 149.733 7.8627 149.733 6.82959C151.064 6.82959 152.333 6.82959 153.68 6.82959C153.68 7.81574 153.68 8.80189 153.68 9.86631C154.572 9.86631 155.386 9.86631 156.263 9.86631C156.263 11.0403 156.263 12.1204 156.263 13.2631C155.433 13.2631 154.635 13.2631 153.711 13.2631C153.711 14.124 153.711 14.9223 153.711 15.7206C153.711 16.5033 153.68 17.2859 153.727 18.0686C153.774 19.0861 154.118 19.3991 155.136 19.4148C155.496 19.4304 155.856 19.4148 156.279 19.4148C156.295 20.5731 156.295 21.6845 156.295 22.9211Z" fill="#F6F7EB"/>
<path d="M156.607 23.2494L156.279 23.2337C155.965 23.2181 155.652 23.2024 155.339 23.2024C154.65 23.1868 153.992 23.1711 153.319 23.0615C150.829 22.6702 149.529 21.1988 149.467 18.663C149.435 17.4577 149.451 16.2837 149.451 15.0314C149.451 14.5775 149.451 14.1235 149.451 13.6696H147.775V9.66238L149.42 9.58412V6.53174H153.992V9.56846H156.576V13.5913H154.024V14.0609C154.024 14.6401 154.024 15.188 154.024 15.7358C154.024 15.9706 154.024 16.2054 154.024 16.4402C154.024 16.9724 154.008 17.5359 154.039 18.0682C154.086 18.9134 154.274 19.1013 155.151 19.1169C155.386 19.1169 155.636 19.1169 155.903 19.1169C156.028 19.1169 156.153 19.1169 156.294 19.1169H156.607V23.2494ZM148.417 13.0278H150.093V13.3409C150.093 13.9044 150.093 14.4679 150.093 15.0314C150.093 16.2837 150.077 17.4577 150.109 18.6473C150.171 20.8701 151.252 22.1067 153.428 22.4511C154.055 22.545 154.697 22.5606 155.37 22.5763C155.574 22.5763 155.777 22.5919 155.997 22.5919V19.7431C155.965 19.7431 155.95 19.7431 155.918 19.7431C155.652 19.7431 155.402 19.7431 155.151 19.7431C153.961 19.7117 153.491 19.2735 153.428 18.0995C153.397 17.5359 153.413 16.9724 153.413 16.4402C153.413 16.2054 153.413 15.9706 153.413 15.7515C153.413 15.2036 153.413 14.6558 153.413 14.0766V12.9809H155.965V10.1946H153.382V7.15787H150.046V10.1789L148.402 10.2572V13.0278H148.417Z" fill="#F6F7EB"/>
<path d="M162.746 22.8582C161.4 22.8582 160.147 22.8582 158.847 22.8582C158.847 18.5692 158.847 14.2802 158.847 9.97559C160.147 9.97559 161.4 9.97559 162.746 9.97559C162.746 10.68 162.746 11.3531 162.746 12.2297C163.984 10.7583 165.283 9.81906 167.147 9.85037C167.147 11.2592 167.147 12.621 167.147 14.108C166.708 14.108 166.286 14.108 165.847 14.108C163.717 14.1393 162.793 15.0472 162.762 17.1604C162.731 19.0232 162.746 20.8859 162.746 22.8582Z" fill="#F6F7EB"/>
<path d="M163.059 23.1714H158.534V9.64705H163.059V11.3846C164.046 10.3671 165.298 9.47486 167.146 9.50617H167.46V14.39H167.146C167.005 14.39 166.864 14.39 166.739 14.39C166.442 14.39 166.144 14.39 165.862 14.39C163.889 14.4213 163.106 15.1883 163.09 17.1293C163.075 18.4285 163.075 19.6964 163.09 21.0426C163.09 21.6374 163.09 22.2322 163.09 22.8427V23.1714H163.059ZM159.16 22.5453H162.433C162.433 22.0444 162.433 21.5591 162.433 21.0582C162.433 19.7121 162.433 18.4442 162.433 17.1449C162.448 14.8439 163.498 13.8108 165.815 13.7795C166.113 13.7795 166.41 13.7795 166.708 13.7795C166.739 13.7795 166.77 13.7795 166.802 13.7795V10.148C165.392 10.2106 164.234 10.8993 162.965 12.4177L162.417 13.0751V10.2732H159.144V22.5453H159.16Z" fill="#F6F7EB"/>
<path d="M179.533 55.9983C179.838 55.3096 180.078 54.749 180.318 54.2045C181.039 52.6349 181.792 51.0653 182.449 49.4798C182.61 49.0954 182.626 48.5348 182.465 48.1504C180.847 44.3226 179.165 40.5268 177.514 36.715C177.402 36.4427 177.29 36.1864 177.114 35.754C178.203 35.754 179.197 35.754 180.206 35.754C182.481 35.754 182.481 35.754 183.315 37.8841C183.971 39.5658 184.628 41.2475 185.349 43.1054C185.798 41.8882 186.183 40.8471 186.567 39.79C187 38.6209 187.416 37.4357 187.865 36.2665C187.945 36.0583 188.185 35.77 188.362 35.77C189.98 35.738 191.598 35.754 193.345 35.754C192.752 37.1634 192.223 38.4607 191.678 39.742C189.499 44.8992 187.304 50.0403 185.157 55.1975C184.901 55.8221 184.58 56.0303 183.923 55.9983C182.529 55.9663 181.103 55.9983 179.533 55.9983ZM185.397 45.2355C185.253 44.9152 185.173 44.739 185.093 44.5468C184.116 42.0643 183.154 39.5979 182.161 37.1154C182.065 36.8751 181.824 36.5388 181.648 36.5388C180.575 36.4907 179.501 36.5068 178.332 36.5068C178.46 36.8591 178.524 37.0833 178.62 37.2915C180.062 40.6069 181.472 43.9542 182.994 47.2375C183.507 48.3426 183.571 49.2555 182.978 50.3606C182.145 51.8982 181.504 53.5318 180.735 55.2135C181.76 55.2135 182.658 55.1815 183.555 55.2295C184.116 55.2615 184.388 55.0854 184.612 54.5408C186.343 50.3606 188.121 46.1965 189.884 42.0323C190.653 40.2225 191.406 38.4127 192.207 36.5068C191.134 36.5068 190.188 36.5388 189.243 36.4907C188.762 36.4747 188.522 36.6349 188.378 37.0833C188.009 38.1724 187.609 39.2455 187.224 40.3186C186.615 41.9202 186.022 43.5218 185.397 45.2355Z" fill="#F6F7EB"/>
<path d="M160.21 74.7378C158.576 74.7378 157.054 74.7378 155.451 74.7378C155.435 74.4495 155.403 74.1612 155.403 73.8889C155.403 71.6467 155.419 69.4044 155.387 67.1622C155.371 65.3844 154.298 64.5035 152.663 64.8238C151.622 65.032 150.981 65.8649 150.965 67.1141C150.949 69.3243 150.965 71.5345 150.965 73.7608C150.965 74.0491 150.965 74.3374 150.965 74.6897C149.363 74.6897 147.809 74.6897 146.206 74.6897C146.206 70.0931 146.206 65.4965 146.206 60.8678C147.777 60.8678 149.315 60.8678 150.917 60.8678C150.949 61.2682 150.965 61.6526 150.997 62.1171C151.189 61.989 151.35 61.9089 151.478 61.8128C154.907 59.2022 159.489 61.06 160.098 65.3203C160.162 65.8168 160.194 66.3293 160.194 66.8418C160.21 69.4364 160.21 72.0471 160.21 74.7378ZM146.959 61.6046C146.959 65.7367 146.959 69.8368 146.959 73.953C148.049 73.953 149.074 73.953 150.18 73.953C150.18 73.6326 150.18 73.3444 150.18 73.0561C150.18 71.0541 150.148 69.0521 150.196 67.05C150.228 65.1601 151.446 63.991 153.272 64.007C155.003 64.023 156.108 65.1922 156.14 67.0661C156.156 69.0681 156.14 71.0701 156.14 73.0721C156.14 73.3604 156.14 73.6326 156.14 73.937C157.294 73.937 158.335 73.937 159.457 73.937C159.457 71.4865 159.457 69.0841 159.457 66.6817C159.457 66.2813 159.409 65.8809 159.345 65.4965C158.976 62.8218 157.198 61.3323 154.506 61.4604C153.08 61.5245 151.974 62.1651 151.141 63.3343C151.013 63.5265 150.693 63.5746 150.468 63.7027C150.372 63.4785 150.228 63.2702 150.212 63.046C150.164 62.5816 150.196 62.1011 150.196 61.6206C149.058 61.6046 148.033 61.6046 146.959 61.6046Z" fill="#F6F7EB"/>
<path d="M187.192 69.6446C188.778 69.6446 190.252 69.6446 191.742 69.6446C192.207 70.9258 192.656 71.3743 193.729 71.3262C194.098 71.3102 194.642 71.038 194.787 70.7337C195.043 70.2051 194.546 69.9328 194.082 69.8047C192.88 69.4684 191.646 69.1961 190.461 68.8277C188.346 68.1711 187.352 66.9058 187.352 64.9839C187.368 63.0299 188.554 61.5404 190.605 60.9478C192.127 60.5154 193.665 60.5154 195.187 60.9639C197.43 61.6205 198.936 63.4784 199.177 65.9449C197.767 65.9449 196.357 65.9609 194.963 65.9288C194.819 65.9288 194.642 65.6405 194.562 65.4484C194.178 64.5354 193.329 64.0229 192.463 64.2792C192.207 64.3593 191.887 64.6475 191.855 64.8718C191.823 65.096 192.079 65.4964 192.303 65.5765C193.072 65.8648 193.889 66.0089 194.674 66.2812C195.7 66.6335 196.822 66.8898 197.703 67.4664C199.818 68.8438 199.914 71.9669 198.007 73.6165C195.684 75.6186 190.605 75.2662 188.57 72.9759C187.753 72.047 187.336 70.9579 187.192 69.6446ZM188.105 70.3653C188.394 71.6305 188.971 72.5595 189.948 73.1361C192.111 74.4173 194.402 74.5455 196.693 73.5525C198.039 72.9599 198.696 71.8548 198.584 70.3333C198.488 68.8918 197.607 68.059 196.357 67.5785C195.588 67.2902 194.771 67.13 193.986 66.8898C193.248 66.6656 192.495 66.4734 191.79 66.1691C191.182 65.9128 190.973 65.3523 191.069 64.7116C191.15 64.087 191.55 63.7186 192.143 63.5585C193.329 63.2381 194.45 63.7026 195.123 64.7276C195.235 64.9038 195.444 65.144 195.62 65.144C196.485 65.1921 197.366 65.1601 198.456 65.1601C198.007 64.3913 197.719 63.7186 197.286 63.1901C195.62 61.124 191.358 60.7556 189.323 62.4533C187.464 64.0069 187.833 66.8898 190.044 67.8508C190.749 68.1551 191.518 68.2992 192.255 68.5234C193.104 68.7637 193.953 68.9719 194.787 69.2602C195.412 69.4844 195.652 70.0129 195.62 70.6696C195.588 71.2942 195.283 71.7266 194.707 71.9669C193.537 72.4474 192.015 71.9028 191.358 70.8137C191.246 70.6215 190.989 70.3973 190.797 70.3813C189.932 70.3333 189.083 70.3653 188.105 70.3653Z" fill="#F6F7EB"/>
<path d="M95.7192 73.4885C95.7192 76.019 95.7192 78.4855 95.7192 80.984C94.1009 80.984 92.5627 80.984 90.9604 80.984C90.9604 74.3053 90.9604 67.6266 90.9604 60.8838C92.4826 60.8838 94.0368 60.8838 95.6711 60.8838C95.6871 61.2362 95.7192 61.6206 95.7512 62.1171C97.2573 60.7397 98.9397 60.4034 100.782 60.7717C103.234 61.2682 104.964 63.2062 105.429 65.977C105.733 67.8188 105.637 69.6446 104.868 71.3744C103.266 74.962 99.116 76.003 95.9915 73.6326C95.9435 73.6006 95.8794 73.5686 95.7192 73.4885ZM94.9341 80.2473C94.9341 79.927 94.9341 79.6387 94.9341 79.3504C94.9341 77.1562 94.918 74.978 94.9501 72.7838C94.9501 72.4955 95.1424 72.1912 95.2545 71.9029C95.5109 72.0791 95.7672 72.2392 96.0076 72.4314C96.5363 72.8639 96.985 73.4404 97.5778 73.7447C99.3883 74.6577 101.872 74.0811 103.218 72.5596C105.365 70.1251 105.397 65.5445 103.282 63.062C101.343 60.7877 97.1452 60.8038 95.8313 63.3984C95.7512 63.5425 95.4308 63.6867 95.2866 63.6386C95.1263 63.5906 94.9661 63.3183 94.9501 63.1261C94.902 62.6296 94.9341 62.1331 94.9341 61.6046C93.8125 61.6046 92.787 61.6046 91.7456 61.6046C91.7456 67.8508 91.7456 74.0491 91.7456 80.2473C92.8351 80.2473 93.8445 80.2473 94.9341 80.2473Z" fill="#F6F7EB"/>
<path d="M155.884 43.8102C156.044 45.0754 156.509 45.636 157.438 45.7962C158.56 46.0044 159.281 45.652 159.793 44.643C159.874 44.4828 160.066 44.2746 160.21 44.2746C161.748 44.2426 163.286 44.2586 164.905 44.2586C164.552 46.645 163.318 48.2466 161.235 49.2236C158.031 50.7131 154.025 49.672 152.231 46.9173C150.308 43.9383 150.821 39.4538 153.352 37.2115C155.483 35.3377 159.329 35.0334 161.924 36.5389C164.328 37.9162 165.481 40.7831 164.841 43.8102C161.908 43.8102 158.928 43.8102 155.884 43.8102ZM164.184 43.0894C164.744 39.8702 162.661 37.0033 159.505 36.4748C155.628 35.8342 152.503 37.8522 151.974 41.3437C151.366 45.3637 153.368 48.4548 156.925 48.9994C160.306 49.5119 163.527 47.6861 163.911 45.0114C162.902 45.0114 161.892 44.9954 160.883 45.0274C160.691 45.0274 160.45 45.2036 160.338 45.3637C159.473 46.5649 158.079 46.9653 156.733 46.4048C155.579 45.9083 154.923 44.5789 155.147 43.1055C158.127 43.0894 161.139 43.0894 164.184 43.0894Z" fill="#F6F7EB"/>
<path d="M120.218 43.8423C118.712 43.8423 117.222 43.8423 115.731 43.8423C114.273 43.8423 112.799 43.8423 111.341 43.8423C111.325 44.8994 111.822 45.5721 112.751 45.7803C113.985 46.0526 114.69 45.6522 115.379 44.2748C116.965 44.2748 118.567 44.2748 120.234 44.2748C120.218 45.4439 119.753 46.4049 119.08 47.2698C117.398 49.48 114.305 50.3769 111.341 49.5761C108.698 48.8554 106.935 46.7573 106.55 43.8904C106.342 42.2568 106.502 40.6872 107.207 39.2137C108.473 36.6031 111.149 35.3058 114.45 35.6421C118.455 36.0586 120.987 39.3579 120.346 43.3459C120.346 43.506 120.282 43.6502 120.218 43.8423ZM119.288 44.9955C118.247 44.9955 117.254 44.9795 116.276 45.0115C116.084 45.0115 115.844 45.1877 115.731 45.3479C114.818 46.5491 113.536 46.9495 112.19 46.4209C110.941 45.9404 110.316 44.7232 110.524 43.0576C113.536 43.0576 116.565 43.0576 119.577 43.0576C120.074 40.2868 118.471 37.2918 115.283 36.539C111.566 35.6581 108.153 37.5641 107.432 40.9434C106.583 44.8834 108.505 48.2628 111.982 48.9515C115.379 49.6241 118.76 47.8464 119.288 44.9955Z" fill="#F6F7EB"/>
<path d="M175.431 68.8598C172.451 68.8598 169.471 68.8598 166.491 68.8598C166.555 70.0449 167.052 70.6696 168.029 70.8778C169.038 71.086 169.904 70.6536 170.368 69.7727C170.464 69.5805 170.705 69.3402 170.881 69.3402C172.403 69.3082 173.909 69.3242 175.431 69.3242C175.239 71.8868 173.349 73.9849 170.641 74.6896C166.747 75.6986 163.078 73.7927 162.004 70.2051C160.995 66.8257 162.133 63.3182 164.744 61.7006C167.596 59.9068 173.348 60.099 175.143 64.6636C175.656 65.9769 175.832 67.3703 175.431 68.8598ZM165.69 68.107C165.962 68.107 166.25 68.107 166.539 68.107C169.07 68.107 171.602 68.107 174.15 68.107C174.534 68.107 174.887 68.123 174.887 67.5464C174.887 65.4804 174.246 63.7026 172.499 62.4854C168.285 59.5544 162.918 62.149 162.453 67.3382C162.213 69.9649 163.495 72.4153 165.658 73.4724C168.077 74.6576 171.217 74.2572 173.076 72.5114C173.765 71.8548 174.31 71.102 174.534 70.077C173.461 70.077 172.467 70.061 171.49 70.093C171.298 70.093 171.009 70.2371 170.929 70.3973C170.24 71.6145 168.59 71.9669 167.324 71.4383C166.122 70.9579 165.481 69.6606 165.69 68.107Z" fill="#F6F7EB"/>
<path d="M150.789 35.7703C149.651 38.9735 148.562 42.0006 147.488 45.0436C146.991 46.421 146.495 47.7984 146.03 49.1918C145.902 49.5922 145.694 49.7203 145.277 49.7203C143.787 49.7043 142.297 49.7363 140.791 49.6883C140.55 49.6883 140.198 49.448 140.118 49.2238C138.548 44.8675 137.009 40.4951 135.455 36.1387C135.423 36.0746 135.439 35.9785 135.423 35.7863C137.025 35.7863 138.612 35.7703 140.198 35.8184C140.358 35.8184 140.582 36.2028 140.663 36.459C141.384 38.7173 142.089 40.9756 142.794 43.2338C142.858 43.458 142.938 43.6663 143.082 44.0506C143.723 42.0166 144.3 40.1427 144.876 38.2688C145.085 37.6122 145.261 36.9395 145.501 36.2989C145.581 36.0907 145.822 35.8184 145.998 35.8184C147.552 35.7543 149.09 35.7703 150.789 35.7703ZM136.529 36.5071C136.545 36.6993 136.545 36.7954 136.577 36.8915C137.939 40.7513 139.301 44.6112 140.711 48.4711C140.791 48.6793 141.159 48.9035 141.384 48.9195C142.441 48.9676 143.515 48.9035 144.588 48.9516C145.133 48.9676 145.373 48.7914 145.549 48.2629C146.815 44.6112 148.113 40.9916 149.411 37.3399C149.507 37.0837 149.571 36.8114 149.651 36.5231C148.466 36.5231 147.376 36.5231 146.238 36.5231C145.213 39.8384 144.187 43.1217 143.114 46.5972C142.97 46.1648 142.89 45.9245 142.81 45.6843C141.912 42.8174 141.015 39.9505 140.086 37.0837C140.006 36.8594 139.765 36.5231 139.589 36.5231C138.58 36.4911 137.57 36.5071 136.529 36.5071Z" fill="#F6F7EB"/>
<path d="M104.836 31.5264C104.836 37.5965 104.836 43.5865 104.836 49.6405C103.282 49.6405 101.744 49.6405 100.173 49.6405C100.125 49.2561 100.093 48.9038 100.061 48.6475C99.164 49.0319 98.2988 49.5604 97.3695 49.7526C94.4374 50.3292 91.8578 48.8397 90.8003 46.0369C89.903 43.6185 89.919 41.152 91.0727 38.8137C92.723 35.4823 96.7927 34.5694 99.7569 36.8277C99.821 36.8757 99.8851 36.9078 100.077 37.0039C100.077 35.13 100.077 33.3362 100.077 31.5264C101.728 31.5264 103.234 31.5264 104.836 31.5264ZM100.862 38.7016C100.478 38.5574 100.125 38.5414 99.9972 38.3492C98.1386 35.8347 94.5976 35.6425 92.5628 37.9808C90.4157 40.4313 90.4478 45.108 92.6268 47.5264C94.7418 49.8647 98.7475 49.5124 99.9652 47.142C100.061 46.9338 100.478 46.9018 100.91 46.7096C100.91 47.6225 100.91 48.2471 100.91 48.8878C102.016 48.8878 103.058 48.8878 104.115 48.8878C104.115 43.3142 104.115 37.7886 104.115 32.2311C103.009 32.2311 101.968 32.2311 100.862 32.2311C100.862 33.3041 100.862 34.3132 100.862 35.3222C100.862 36.3632 100.862 37.4043 100.862 38.7016Z" fill="#F6F7EB"/>
<path d="M116.869 62.1488C116.869 61.6523 116.869 61.2839 116.869 60.8675C118.455 60.8675 119.993 60.8675 121.58 60.8675C121.58 65.4641 121.58 70.0607 121.58 74.7053C120.026 74.7053 118.487 74.7053 116.901 74.7053C116.885 74.3049 116.853 73.8885 116.821 73.376C115.475 74.6893 113.921 75.1057 112.206 74.8655C109.739 74.5131 108.185 73.0236 107.4 70.7173C106.759 68.8435 106.775 66.9375 107.32 65.0477C108.681 60.435 113.873 59.41 116.869 62.1488ZM117.638 61.5882C117.638 62.1167 117.67 62.5972 117.622 63.0617C117.59 63.2699 117.43 63.5261 117.254 63.6382C117.157 63.7023 116.805 63.5261 116.725 63.366C115.427 60.8995 111.534 60.8354 109.595 62.7093C107.127 65.1117 107.063 70.3009 109.499 72.7354C111.566 74.8014 115.379 74.5932 116.709 72.2228C116.805 72.0467 117.109 71.9986 117.318 71.8865C117.43 72.0947 117.606 72.3029 117.622 72.5271C117.67 72.9916 117.638 73.4561 117.638 73.9205C118.776 73.9205 119.801 73.9205 120.827 73.9205C120.827 69.7884 120.827 65.7043 120.827 61.5882C119.785 61.5882 118.776 61.5882 117.638 61.5882Z" fill="#F6F7EB"/>
<path d="M136.481 57.6484C138.131 57.6484 139.669 57.6484 141.271 57.6484C141.271 58.6895 141.271 59.6985 141.271 60.8036C142.169 60.8036 143.002 60.8036 143.883 60.8036C143.883 62.213 143.883 63.5423 143.883 64.9357C143.05 64.9357 142.249 64.9357 141.287 64.9357C141.287 65.9768 141.287 66.9537 141.287 67.9307C141.287 70.3652 141.287 70.3652 143.691 70.5413C143.739 70.5413 143.787 70.5734 143.899 70.6054C143.899 71.9507 143.899 73.3121 143.899 74.8496C142.553 74.7535 141.207 74.7856 139.925 74.5133C137.875 74.0969 136.721 72.6715 136.577 70.5574C136.481 69.0358 136.513 67.5143 136.481 65.9928C136.481 65.6725 136.481 65.3682 136.481 64.9678C135.872 64.9678 135.359 64.9678 134.782 64.9678C134.782 63.5744 134.782 62.245 134.782 60.8196C135.327 60.8196 135.872 60.8196 136.481 60.8196C136.481 59.7305 136.481 58.7215 136.481 57.6484ZM143.13 61.5083C142.217 61.5083 141.416 61.5083 140.518 61.5083C140.518 60.4192 140.518 59.4102 140.518 58.4012C139.397 58.4012 138.371 58.4012 137.25 58.4012C137.25 59.4582 137.25 60.4512 137.25 61.5083C136.625 61.5403 136.08 61.5724 135.519 61.6044C135.519 62.5013 135.519 63.3181 135.519 64.183C136.112 64.215 136.641 64.231 137.234 64.2631C137.234 66.0729 137.202 67.8026 137.25 69.5483C137.282 71.0218 137.506 72.4472 138.932 73.3121C140.262 74.1129 141.72 74.0328 143.162 73.9527C143.162 73.0238 143.162 72.191 143.162 71.3101C142.89 71.2941 142.681 71.2781 142.473 71.2781C140.983 71.246 140.566 70.8296 140.55 69.3722C140.55 68.4593 140.55 67.5624 140.55 66.6494C140.55 65.8647 140.55 65.0799 140.55 64.199C141.496 64.199 142.297 64.199 143.13 64.199C143.13 63.2861 143.13 62.4693 143.13 61.5083Z" fill="#F6F7EB"/>
<path d="M171.65 37.4843C173.044 36.2031 174.438 35.5144 176.185 35.6585C176.185 37.3242 176.185 38.9738 176.185 40.6395C175.431 40.6715 174.71 40.6715 173.989 40.7676C172.339 40.9919 171.714 41.6966 171.698 43.3783C171.666 45.1721 171.698 46.9498 171.698 48.7436C171.698 49.0319 171.698 49.3202 171.698 49.6566C170.08 49.6566 168.51 49.6566 166.923 49.6566C166.923 45.0439 166.923 40.4954 166.923 35.8507C168.478 35.8507 170.032 35.8507 171.65 35.8507C171.65 36.2992 171.65 36.7636 171.65 37.4843ZM170.945 48.9038C170.945 48.5515 170.945 48.2311 170.945 47.9268C170.961 46.2451 170.913 44.5635 171.009 42.8978C171.105 41.104 172.099 40.175 173.909 39.9989C174.438 39.9508 174.951 39.9188 175.496 39.8707C175.496 38.7016 175.496 37.5965 175.496 36.4113C173.332 36.6035 172.099 37.9969 171.105 39.7266C171.041 39.6946 170.993 39.6625 170.929 39.6305C170.929 38.6055 170.929 37.5965 170.929 36.5554C169.792 36.5554 168.766 36.5554 167.725 36.5554C167.725 40.6876 167.725 44.7877 167.725 48.9038C168.782 48.9038 169.808 48.9038 170.945 48.9038Z" fill="#F6F7EB"/>
<path d="M128.966 74.7374C127.332 74.7374 125.81 74.7374 124.223 74.7374C124.223 70.1088 124.223 65.4962 124.223 60.8675C125.794 60.8675 127.332 60.8675 128.918 60.8675C128.95 61.364 128.982 61.8285 129.014 62.4211C130.344 61.2839 131.706 60.5472 133.452 60.7074C133.452 62.389 133.452 64.0227 133.452 65.7845C132.844 65.7845 132.267 65.7684 131.69 65.7845C129.751 65.8325 128.966 66.6173 128.966 68.5392C128.95 70.5732 128.966 72.6073 128.966 74.7374ZM132.667 64.9196C132.667 63.7344 132.667 62.6133 132.667 61.4441C130.552 61.7004 129.319 63.0297 128.213 64.6633C128.213 63.6543 128.213 62.6293 128.213 61.5882C127.075 61.5882 126.05 61.5882 124.96 61.5882C124.96 65.7204 124.96 69.8205 124.96 73.9206C126.066 73.9206 127.107 73.9206 128.213 73.9206C128.213 73.5682 128.213 73.28 128.213 72.9917C128.213 71.358 128.197 69.7404 128.229 68.1068C128.261 66.3931 129.062 65.4321 130.745 65.1118C131.369 64.9997 132.01 64.9997 132.667 64.9196Z" fill="#F6F7EB"/>
<path d="M182.001 74.7214C180.366 74.7214 178.844 74.7214 177.29 74.7214C177.29 70.1088 177.29 65.5282 177.29 60.8836C178.812 60.8836 180.35 60.8836 181.953 60.8836C181.985 61.332 182.017 61.7965 182.049 62.4051C183.363 61.2679 184.741 60.5472 186.503 60.6753C186.503 62.341 186.503 64.0067 186.503 65.7524C185.974 65.7524 185.446 65.7524 184.917 65.7524C182.786 65.7684 182.033 66.5212 182.001 68.6673C181.985 70.3971 182.001 72.1428 182.001 73.8726C182.001 74.1448 182.001 74.4011 182.001 74.7214ZM181.248 64.6633C181.248 63.6383 181.248 62.6133 181.248 61.6043C180.126 61.6043 179.101 61.6043 178.059 61.6043C178.059 65.7524 178.059 69.8365 178.059 73.9366C179.149 73.9366 180.174 73.9366 181.28 73.9366C181.28 71.9506 181.264 70.0127 181.28 68.0748C181.296 66.4571 182.081 65.4802 183.667 65.1438C184.34 64.9997 185.029 64.9837 185.782 64.9036C185.782 64.0067 185.782 63.1098 185.782 62.2129C185.782 61.9726 185.766 61.7484 185.75 61.5082C184.132 61.5562 183.154 62.2769 181.248 64.6633Z" fill="#F6F7EB"/>
<path d="M122.076 31.5103C123.663 31.5103 125.185 31.5103 126.771 31.5103C126.771 37.5323 126.771 43.5383 126.771 49.6244C125.233 49.6244 123.695 49.6244 122.076 49.6244C122.076 43.6024 122.076 37.5964 122.076 31.5103ZM126.018 48.9037C126.018 43.3301 126.018 37.8046 126.018 32.231C124.944 32.231 123.903 32.231 122.845 32.231C122.845 37.8046 122.845 43.3301 122.845 48.9037C123.903 48.9037 124.928 48.9037 126.018 48.9037Z" fill="#F6F7EB"/>
<path d="M134.157 49.6402C132.571 49.6402 131.017 49.6402 129.415 49.6402C129.415 45.0116 129.415 40.447 129.415 35.8184C131.001 35.8184 132.571 35.8184 134.157 35.8184C134.157 40.447 134.157 45.0116 134.157 49.6402ZM130.2 36.5551C130.2 40.6872 130.2 44.7713 130.2 48.9035C131.273 48.9035 132.299 48.9035 133.388 48.9035C133.388 44.7713 133.388 40.6872 133.388 36.5551C132.299 36.5551 131.273 36.5551 130.2 36.5551Z" fill="#F6F7EB"/>
<path d="M131.802 29.9245C133.452 29.9085 134.638 30.9655 134.622 32.439C134.606 33.8805 133.452 34.9055 131.85 34.9215C130.168 34.9215 129.046 33.9125 129.046 32.407C129.046 30.9495 130.184 29.9245 131.802 29.9245ZM131.834 30.6933C130.6 30.6933 129.815 31.382 129.815 32.439C129.831 33.448 130.648 34.1527 131.802 34.1527C133.004 34.1527 133.853 33.4 133.837 32.391C133.821 31.382 133.02 30.6933 131.834 30.6933Z" fill="#F6F7EB"/>
<path d="M48.3084 95.0458C48.8692 97.5603 47.5714 98.8736 45.4884 99.9467C42.6845 101.388 40.0087 103.054 37.3009 104.623C36.3556 105.168 35.4102 105.2 34.513 104.591C33.6317 104.015 33.2632 103.166 33.3914 102.109C33.4875 101.244 33.9682 100.635 34.7052 100.219C35.8589 99.5463 37.0125 98.8897 38.1661 98.217C40.8579 96.6474 40.89 93.3962 38.2142 91.8426C34.4329 89.6324 30.6355 87.4862 26.8542 85.276C25.3961 84.4272 24.0182 84.4272 22.5601 85.276C16.8401 88.6074 11.12 91.8907 5.38396 95.206C5.01544 95.4142 4.6309 95.6384 4.23033 95.7505C3.02864 96.0869 1.74683 95.4462 1.25013 94.3091C0.72139 93.1079 1.10593 91.6664 2.16342 90.9617C2.96455 90.4332 3.81374 89.9847 4.64692 89.5043C7.69121 87.7425 10.7515 85.9968 13.8118 84.251C16.6318 82.6334 16.6318 79.3821 13.8118 77.7485C10.1106 75.6184 6.42542 73.4722 2.70819 71.3741C1.53854 70.7174 0.945706 69.8205 1.0098 68.4592C1.05786 67.5463 1.04184 66.6494 1.0098 65.7365C0.961728 64.5032 1.5065 63.6544 2.54796 63.0618C6.34531 60.8836 10.1266 58.6894 13.908 56.5112C16.7279 54.8776 16.744 51.6423 13.924 50.0087C10.1907 47.8465 6.45747 45.6684 2.69217 43.5382C1.52252 42.8816 0.929683 41.9847 0.993774 40.6233C1.04184 39.6463 1.0098 38.6533 1.0098 37.6603C1.0098 36.6353 1.44241 35.8505 2.32365 35.338C5.68838 33.3841 9.05312 31.4301 12.4499 29.5242C13.7157 28.8035 15.2378 29.2679 15.9268 30.4691C16.6318 31.7024 16.2473 33.1758 14.9815 33.9446C13.7477 34.6974 12.482 35.3861 11.2482 36.1068C8.52438 37.7084 8.50836 40.9596 11.2322 42.5292C15.0456 44.7394 18.8589 46.9176 22.6563 49.1278C24.0342 49.9286 25.3641 49.8966 26.742 49.1118C32.5582 45.7324 38.3744 42.3851 44.1906 39.0377C45.5045 38.285 46.7382 38.3971 47.6194 39.342C48.7891 40.5913 48.4366 42.4651 46.8343 43.3941C43.3735 45.3961 39.9126 47.3981 36.4517 49.4001C36.0191 49.6564 35.5705 49.8966 35.1379 50.1528C33.8721 50.9056 33.2472 52.0267 33.3754 53.4842C33.4234 54.0608 33.2472 54.3491 32.7505 54.6053C31.1643 55.4702 29.594 56.3831 28.0238 57.312C27.5271 57.6003 27.1426 57.6484 26.6299 57.328C25.3 56.5112 23.9701 56.5753 22.6242 57.3601C18.875 59.5382 15.0936 61.7004 11.3283 63.8786C8.44427 65.5443 8.46029 68.7635 11.3283 70.4131C15.0295 72.5433 18.7307 74.6574 22.3999 76.8196C23.89 77.6844 25.284 77.6844 26.7741 76.8196C30.5554 74.6254 34.3527 72.4632 38.1501 70.301C39.3838 69.5963 40.0408 68.5713 40.1209 67.1299C40.1369 66.8576 40.3772 66.4892 40.6176 66.3451C42.3961 65.272 44.1906 64.2309 46.0172 63.238C46.3056 63.0778 46.8503 63.1419 47.1708 63.318C47.9078 63.7345 48.2764 64.4552 48.2924 65.32C48.3084 66.5533 48.3244 67.7705 48.2924 69.0037C48.2603 70.0288 47.7156 70.7335 46.8503 71.246C42.9729 73.4722 39.0794 75.7145 35.218 77.9727C33.5837 78.9177 32.9428 80.6794 33.5837 82.3611C33.9041 83.226 34.529 83.8186 35.3141 84.267C38.9512 86.3491 42.5403 88.5113 46.2094 90.5133C47.7636 91.3621 48.5487 92.4512 48.3244 94.229C48.2924 94.5013 48.3084 94.7735 48.3084 95.0458Z" fill="#F6F7EB"/>
<path d="M185.397 45.2363C186.022 43.5225 186.615 41.9209 187.208 40.3354C187.609 39.2623 188.009 38.1892 188.362 37.1001C188.522 36.6357 188.762 36.4915 189.227 36.5075C190.172 36.5396 191.133 36.5235 192.191 36.5235C191.39 38.4295 190.637 40.2393 189.868 42.0491C188.105 46.2132 186.327 50.3774 184.596 54.5576C184.372 55.0861 184.1 55.2623 183.539 55.2463C182.642 55.1982 181.744 55.2303 180.719 55.2303C181.488 53.5326 182.129 51.8989 182.962 50.3774C183.555 49.2723 183.491 48.3754 182.978 47.2543C181.456 43.971 180.062 40.6236 178.604 37.3083C178.508 37.1001 178.444 36.8759 178.315 36.5235C179.485 36.5235 180.559 36.4915 181.632 36.5556C181.824 36.5716 182.049 36.9079 182.145 37.1322C183.138 39.5986 184.1 42.0811 185.077 44.5636C185.173 44.7398 185.253 44.9159 185.397 45.2363Z" fill="#F6F7EB"/>
<path d="M146.959 61.6044C148.033 61.6044 149.058 61.6044 150.18 61.6044C150.18 62.0849 150.148 62.5654 150.196 63.0298C150.212 63.254 150.372 63.4623 150.452 63.6865C150.677 63.5744 150.997 63.5103 151.125 63.3181C151.958 62.1489 153.064 61.5083 154.49 61.4442C157.182 61.3161 158.96 62.7896 159.329 65.4803C159.377 65.8807 159.441 66.2811 159.441 66.6655C159.457 69.0679 159.441 71.4543 159.441 73.9207C158.335 73.9207 157.278 73.9207 156.124 73.9207C156.124 73.6324 156.124 73.3442 156.124 73.0559C156.124 71.0539 156.14 69.0519 156.124 67.0499C156.108 65.176 155.003 64.0068 153.256 63.9908C151.43 63.9748 150.212 65.1439 150.18 67.0338C150.148 69.0358 150.164 71.0378 150.164 73.0399C150.164 73.3281 150.164 73.6164 150.164 73.9368C149.058 73.9368 148.033 73.9368 146.943 73.9368C146.959 69.8206 146.959 65.7365 146.959 61.6044Z" fill="#F6F7EB"/>
<path d="M188.105 70.3651C189.083 70.3651 189.948 70.3331 190.781 70.3812C190.973 70.3972 191.23 70.6214 191.342 70.8136C192.015 71.9027 193.521 72.4312 194.691 71.9667C195.267 71.7265 195.572 71.2941 195.604 70.6694C195.636 70.0128 195.38 69.4843 194.771 69.26C193.938 68.9717 193.088 68.7635 192.239 68.5233C191.502 68.3151 190.733 68.1549 190.028 67.8506C187.817 66.8897 187.432 64.0068 189.307 62.4532C191.342 60.7555 195.604 61.1239 197.27 63.1899C197.703 63.7345 197.991 64.3911 198.44 65.1599C197.334 65.1599 196.469 65.1759 195.604 65.1439C195.428 65.1279 195.235 64.9037 195.107 64.7275C194.45 63.7025 193.329 63.238 192.127 63.5583C191.534 63.7185 191.15 64.0868 191.053 64.7115C190.957 65.3521 191.166 65.9127 191.775 66.1689C192.48 66.4572 193.233 66.6654 193.97 66.8897C194.755 67.1299 195.572 67.2901 196.341 67.5783C197.591 68.0588 198.456 68.8917 198.568 70.3331C198.68 71.8386 198.023 72.9597 196.677 73.5523C194.386 74.5453 192.095 74.4172 189.932 73.1359C188.971 72.5433 188.394 71.6304 188.105 70.3651Z" fill="#F6F7EB"/>
<path d="M94.9341 80.2472C93.8285 80.2472 92.8191 80.2472 91.7456 80.2472C91.7456 74.049 91.7456 67.8508 91.7456 61.6045C92.7871 61.6045 93.8125 61.6045 94.9341 61.6045C94.9341 62.1331 94.9021 62.6296 94.9501 63.1261C94.9661 63.3182 95.1264 63.5905 95.2866 63.6386C95.4308 63.6866 95.7512 63.5425 95.8314 63.3983C97.1452 60.8197 101.343 60.7877 103.282 63.062C105.397 65.5445 105.365 70.1251 103.218 72.5595C101.872 74.081 99.3884 74.6416 97.5778 73.7447C96.985 73.4404 96.5364 72.8638 96.0076 72.4314C95.7673 72.2392 95.5109 72.079 95.2546 71.9028C95.1584 72.1911 94.9661 72.4954 94.9501 72.7837C94.9181 74.9779 94.9341 77.1561 94.9341 79.3503C94.9341 79.6386 94.9341 79.9108 94.9341 80.2472ZM101.487 67.7707C101.487 65.5925 100.222 64.1991 98.2508 64.1991C96.2479 64.1991 94.9501 65.6085 94.9501 67.8027C94.9501 69.9329 96.264 71.3743 98.2027 71.3903C100.19 71.3903 101.487 69.9649 101.487 67.7707Z" fill="#F6F7EB"/>
<path d="M164.184 43.0899C161.139 43.0899 158.127 43.0899 155.131 43.0899C154.89 44.5634 155.547 45.9087 156.717 46.3892C158.063 46.9498 159.441 46.5494 160.322 45.3482C160.434 45.188 160.675 45.0118 160.867 45.0118C161.876 44.9798 162.886 44.9958 163.895 44.9958C163.511 47.6865 160.29 49.4963 156.909 48.9838C153.352 48.4392 151.349 45.3481 151.958 41.3281C152.487 37.8366 155.612 35.8186 159.489 36.4592C162.661 37.0038 164.744 39.8707 164.184 43.0899ZM160.883 42.0649C161.091 40.0949 160.114 38.8777 158.255 38.7656C156.365 38.6374 155.083 39.9668 155.099 42.0649C157.022 42.0649 158.928 42.0649 160.883 42.0649Z" fill="#F6F7EB"/>
<path d="M119.289 44.996C118.76 47.8468 115.379 49.6246 111.982 48.9519C108.505 48.2633 106.599 44.8839 107.432 40.9439C108.153 37.5645 111.566 35.6586 115.283 36.5395C118.471 37.2923 120.074 40.3033 119.577 43.058C116.565 43.058 113.536 43.058 110.524 43.058C110.316 44.7237 110.941 45.9409 112.19 46.4214C113.536 46.9339 114.802 46.5335 115.731 45.3483C115.86 45.1882 116.1 45.028 116.276 45.012C117.254 44.98 118.247 44.996 119.289 44.996ZM110.492 42.049C112.479 42.049 114.402 42.049 116.324 42.049C116.485 40.0791 115.411 38.8138 113.568 38.7497C111.71 38.7017 110.396 40.0791 110.492 42.049Z" fill="#F6F7EB"/>
<path d="M165.69 68.1069C165.481 69.6604 166.122 70.9577 167.292 71.4382C168.558 71.9667 170.208 71.6144 170.897 70.3972C170.993 70.237 171.265 70.0929 171.458 70.0929C172.435 70.0608 173.428 70.0768 174.502 70.0768C174.278 71.1019 173.733 71.8706 173.044 72.5113C171.185 74.257 168.045 74.6414 165.625 73.4722C163.462 72.4152 162.181 69.9487 162.421 67.3381C162.886 62.1489 168.253 59.5543 172.467 62.4852C174.214 63.7025 174.854 65.4642 174.854 67.5463C174.854 68.1229 174.518 68.1069 174.117 68.1069C171.586 68.1069 169.054 68.1069 166.507 68.1069C166.25 68.1069 165.962 68.1069 165.69 68.1069ZM171.49 67.1619C171.618 65.9447 171.394 64.9357 170.352 64.3111C169.263 63.6384 168.109 63.6544 167.019 64.279C165.946 64.9037 165.625 65.9447 165.642 67.1619C167.596 67.1619 169.503 67.1619 171.49 67.1619Z" fill="#F6F7EB"/>
<path d="M136.529 36.507C137.57 36.507 138.58 36.475 139.573 36.5391C139.749 36.5551 140.006 36.8754 140.07 37.0996C140.999 39.9665 141.896 42.8334 142.794 45.7002C142.874 45.9405 142.954 46.1807 143.098 46.6132C144.171 43.1377 145.197 39.8544 146.222 36.5391C147.36 36.5391 148.45 36.5391 149.635 36.5391C149.555 36.8434 149.491 37.0996 149.395 37.3559C148.113 40.9915 146.799 44.6272 145.533 48.2788C145.357 48.8074 145.117 48.9835 144.572 48.9675C143.515 48.9195 142.441 48.9835 141.368 48.9355C141.127 48.9195 140.759 48.6952 140.695 48.487C139.301 44.6432 137.939 40.7673 136.561 36.9074C136.545 36.8113 136.545 36.6992 136.529 36.507Z" fill="#F6F7EB"/>
<path d="M100.862 38.7014C100.862 37.4041 100.862 36.3631 100.862 35.3221C100.862 34.313 100.862 33.304 100.862 32.231C101.984 32.231 103.025 32.231 104.115 32.231C104.115 37.7885 104.115 43.3141 104.115 48.8877C103.041 48.8877 102.016 48.8877 100.91 48.8877C100.91 48.263 100.91 47.6384 100.91 46.7095C100.478 46.8856 100.077 46.9337 99.9652 47.1419C98.7475 49.4963 94.7258 49.8486 92.6268 47.5263C90.4318 45.1079 90.4157 40.4312 92.5628 37.9807C94.5976 35.6424 98.1386 35.8346 99.9972 38.3491C100.141 38.5413 100.494 38.5573 100.862 38.7014ZM100.862 42.241C100.862 40.7995 99.853 39.4542 98.2508 39.1979C96.5684 38.9257 95.1584 39.6624 94.5976 41.1039C93.9086 42.8976 94.4374 45.0118 95.8153 45.8446C96.9049 46.5013 98.0585 46.5173 99.164 45.9247C100.462 45.236 100.894 44.0828 100.862 42.241Z" fill="#F6F7EB"/>
<path d="M117.638 61.5888C118.776 61.5888 119.785 61.5888 120.827 61.5888C120.827 65.705 120.827 69.7891 120.827 73.9212C119.801 73.9212 118.776 73.9212 117.638 73.9212C117.638 73.4567 117.67 72.9923 117.622 72.5278C117.606 72.3036 117.43 72.1114 117.318 71.8872C117.109 71.9993 116.805 72.0473 116.709 72.2235C115.379 74.5939 111.581 74.8021 109.499 72.736C107.063 70.3176 107.143 65.1124 109.595 62.71C111.517 60.8361 115.427 60.9002 116.725 63.3666C116.805 63.5268 117.157 63.703 117.253 63.6389C117.43 63.5268 117.59 63.2705 117.622 63.0623C117.67 62.5979 117.638 62.1174 117.638 61.5888ZM114.337 64.1995C112.351 64.1995 111.085 65.5608 111.085 67.739C111.069 69.9652 112.335 71.3746 114.337 71.3746C116.276 71.3746 117.622 69.9332 117.638 67.8191C117.67 65.6729 116.308 64.1995 114.337 64.1995Z" fill="#F6F7EB"/>
<path d="M143.13 61.508C143.13 62.469 143.13 63.2858 143.13 64.1987C142.313 64.1987 141.496 64.1987 140.55 64.1987C140.55 65.0636 140.55 65.8644 140.55 66.6492C140.55 67.5621 140.55 68.459 140.55 69.3719C140.566 70.8293 140.983 71.2458 142.473 71.2778C142.681 71.2778 142.89 71.2938 143.162 71.3098C143.162 72.1907 143.162 73.0235 143.162 73.9525C141.72 74.0326 140.262 74.1126 138.932 73.3118C137.506 72.447 137.298 71.0215 137.25 69.5481C137.202 67.8183 137.234 66.0886 137.234 64.2628C136.641 64.2307 136.096 64.2147 135.519 64.1827C135.519 63.3178 135.519 62.517 135.519 61.6041C136.08 61.5721 136.625 61.54 137.25 61.508C137.25 60.467 137.25 59.4579 137.25 58.4009C138.355 58.4009 139.397 58.4009 140.518 58.4009C140.518 59.4099 140.518 60.4189 140.518 61.508C141.416 61.508 142.217 61.508 143.13 61.508Z" fill="#F6F7EB"/>
<path d="M170.945 48.9036C169.807 48.9036 168.782 48.9036 167.708 48.9036C167.708 44.7875 167.708 40.7034 167.708 36.5553C168.75 36.5553 169.775 36.5553 170.913 36.5553C170.913 37.5803 170.913 38.6053 170.913 39.6304C170.977 39.6624 171.025 39.6944 171.089 39.7265C172.083 37.9967 173.3 36.6033 175.479 36.4111C175.479 37.5963 175.479 38.7014 175.479 39.8706C174.935 39.9186 174.422 39.9507 173.893 39.9987C172.099 40.1589 171.089 41.1038 170.993 42.8976C170.897 44.5793 170.945 46.245 170.929 47.9267C170.929 48.231 170.945 48.5513 170.945 48.9036Z" fill="#F6F7EB"/>
<path d="M132.667 64.9193C132.01 64.9834 131.369 64.9994 130.745 65.1115C129.062 65.4319 128.261 66.3928 128.229 68.1065C128.197 69.7402 128.213 71.3578 128.213 72.9914C128.213 73.2797 128.213 73.568 128.213 73.9204C127.107 73.9204 126.05 73.9204 124.96 73.9204C124.96 69.8203 124.96 65.7201 124.96 61.588C126.05 61.588 127.075 61.588 128.213 61.588C128.213 62.629 128.213 63.6541 128.213 64.6631C129.335 63.0294 130.552 61.7001 132.667 61.4438C132.667 62.613 132.667 63.7502 132.667 64.9193Z" fill="#F6F7EB"/>
<path d="M181.248 64.6635C183.154 62.2771 184.132 61.5563 185.75 61.5083C185.766 61.7485 185.782 61.9728 185.782 62.213C185.782 63.1099 185.782 64.0068 185.782 64.9037C185.013 64.9838 184.324 64.9998 183.667 65.1439C182.081 65.4803 181.296 66.4572 181.28 68.0749C181.264 70.0128 181.28 71.9507 181.28 73.9367C180.174 73.9367 179.149 73.9367 178.059 73.9367C178.059 69.8366 178.059 65.7525 178.059 61.6044C179.101 61.6044 180.142 61.6044 181.248 61.6044C181.248 62.6134 181.248 63.6384 181.248 64.6635Z" fill="#F6F7EB"/>
<path d="M126.018 48.9036C124.928 48.9036 123.903 48.9036 122.845 48.9036C122.845 43.3301 122.845 37.8045 122.845 32.231C123.919 32.231 124.944 32.231 126.018 32.231C126.018 37.8045 126.018 43.3301 126.018 48.9036Z" fill="#F6F7EB"/>
<path d="M130.2 36.5552C131.273 36.5552 132.299 36.5552 133.388 36.5552C133.388 40.6873 133.388 44.7714 133.388 48.9035C132.299 48.9035 131.273 48.9035 130.2 48.9035C130.2 44.7714 130.2 40.6873 130.2 36.5552Z" fill="#F6F7EB"/>
<path d="M131.834 30.6934C133.02 30.6934 133.837 31.382 133.853 32.3911C133.869 33.4161 133.02 34.1528 131.818 34.1528C130.648 34.1528 129.831 33.4481 129.831 32.4391C129.799 31.366 130.6 30.6934 131.834 30.6934Z" fill="#F6F7EB"/>
<path d="M101.487 67.7702C101.487 69.9805 100.206 71.3899 98.2027 71.3739C96.264 71.3579 94.9501 69.9164 94.9501 67.7863C94.9501 65.6081 96.248 64.1826 98.2508 64.1826C100.222 64.1986 101.471 65.592 101.487 67.7702ZM100.702 67.7542C100.686 65.9604 99.7569 64.9514 98.1386 64.9674C96.6325 64.9834 95.6711 66.0885 95.6872 67.8023C95.7032 69.516 96.7126 70.6211 98.2828 70.6051C99.805 70.5731 100.718 69.516 100.702 67.7542Z" fill="#F6F7EB"/>
<path d="M160.883 42.0646C158.912 42.0646 157.005 42.0646 155.099 42.0646C155.083 39.9665 156.381 38.6372 158.255 38.7653C160.13 38.8935 161.107 40.0947 160.883 42.0646ZM155.98 41.2959C157.39 41.2959 158.752 41.2959 160.13 41.2959C160.034 40.2068 159.329 39.5661 158.223 39.5181C157.037 39.4861 156.204 40.1267 155.98 41.2959Z" fill="#F6F7EB"/>
<path d="M110.492 42.0486C110.396 40.0786 111.694 38.7012 113.568 38.7493C115.411 38.8133 116.484 40.0626 116.324 42.0486C114.418 42.0486 112.479 42.0486 110.492 42.0486ZM115.539 41.2958C115.379 40.1427 114.61 39.502 113.456 39.518C112.303 39.5501 111.485 40.2548 111.405 41.3599C112.607 41.3599 113.809 41.3599 114.994 41.3599C115.171 41.3599 115.347 41.3279 115.539 41.2958Z" fill="#F6F7EB"/>
<path d="M171.49 67.162C169.503 67.162 167.596 67.162 165.642 67.162C165.626 65.9447 165.946 64.8877 167.02 64.2791C168.109 63.6545 169.263 63.6384 170.352 64.3111C171.394 64.9518 171.618 65.9608 171.49 67.162ZM170.673 66.3932C170.641 65.3041 169.92 64.6314 168.766 64.5834C167.532 64.5353 166.667 65.24 166.555 66.3932C167.933 66.3932 169.311 66.3932 170.673 66.3932Z" fill="#F6F7EB"/>
<path d="M100.862 42.2409C100.894 44.0828 100.462 45.2359 99.1801 45.9086C98.0745 46.5012 96.9049 46.4852 95.8314 45.8285C94.4374 44.9957 93.9247 42.8816 94.6137 41.0878C95.1584 39.6463 96.5844 38.9096 98.2668 39.1819C99.8691 39.4541 100.862 40.7995 100.862 42.2409ZM95.0943 42.7214C95.0943 44.4351 96.0557 45.5402 97.5618 45.5722C99.0679 45.6043 100.125 44.4191 100.125 42.7214C100.125 40.9917 99.1 39.8545 97.5778 39.8705C96.0557 39.9026 95.0943 41.0077 95.0943 42.7214Z" fill="#F6F7EB"/>
<path d="M114.337 64.1989C116.308 64.1989 117.67 65.6884 117.638 67.8185C117.606 69.9166 116.276 71.3741 114.337 71.3741C112.335 71.3741 111.069 69.9646 111.085 67.7384C111.085 65.5602 112.351 64.1829 114.337 64.1989ZM116.869 67.8025C116.869 66.3771 116.196 65.304 115.042 65.0477C114.097 64.8395 113.152 64.9356 112.495 65.7524C111.646 66.8255 111.662 68.0427 112.142 69.2279C112.527 70.1889 113.328 70.6053 114.369 70.6053C115.86 70.5733 116.853 69.4682 116.869 67.8025Z" fill="#F6F7EB"/>
</svg>
