<svg width="85" height="31" viewBox="0 0 85 31" fill="none" xmlns="http://www.w3.org/2000/svg">
<path d="M10.3123 31C16.2921 31 20.5172 28.255 20.5172 22.3259C20.5172 18.2267 17.7959 14.4935 12.6398 14.2007L19.5147 7.53955V4.42857H1.28904V9.95514H11.0643L4.47584 16.4333L6.55263 19.2881C7.62683 18.8123 8.80845 18.5195 9.91846 18.5195C12.4249 18.5195 14.2511 19.6541 14.2511 21.9599C14.2511 24.1558 12.7472 25.51 10.0617 25.51C7.44779 25.51 5.83649 24.3022 5.83649 22.3991V22.2527H0V22.6919C0 27.8524 3.90293 31 10.3123 31ZM32.2951 26.5714C38.2748 26.5714 42.5 23.8264 42.5 17.8973C42.5 13.7981 39.7787 10.0649 34.6225 9.77214L41.4974 3.11098V0H23.2718V5.52656H33.047L26.4586 12.0047L28.5354 14.8595C29.6096 14.3837 30.7912 14.0909 31.9012 14.0909C34.4077 14.0909 36.2338 15.2255 36.2338 17.5313C36.2338 19.7273 34.7299 21.0815 32.0444 21.0815C29.4306 21.0815 27.8193 19.8737 27.8193 17.9705V17.8241H21.9828V18.2633C21.9828 23.4238 25.8857 26.5714 32.2951 26.5714ZM64.4828 31V25.2093H51.6365C52.7009 24.403 54.2058 23.5233 56.408 22.2406C61.4731 19.2353 64.3359 16.8897 64.3359 12.0152C64.3359 7.03074 60.0049 4.42857 54.1324 4.42857C47.4891 4.42857 43.9655 7.76374 43.9655 13.4445V14.5807H49.8748V13.921C49.8748 11.612 51.1961 10.0361 53.9856 10.0361C56.0043 10.0361 57.5458 10.9523 57.5458 12.6382C57.5458 15.0205 55.3436 16.5965 51.3796 19.1986C45.9842 22.7537 44.1857 25.3559 44.1123 29.1675V31H64.4828ZM73.7889 25.8333L85 3.08837V0H65.9483V5.77707H77.0529L66.7998 25.8333H73.7889Z" fill="white"/>
</svg>
